#N canvas 194 217 789 456 12;
#X text 118 194 set the array being referenced;
#X msg 121 224 set array-rand-fill-help-2;
#X msg 156 268 set array-rand-fill-help;
#X text 624 409 array-abs v0.0.0;
#X obj 61 184 bng 19 250 50 0 empty empty empty 0 -10 0 12 #fcfcfc #000000 #000000;
#X text 514 268 change random bounds;
#X msg 516 298 -0.3 0.4;
#X obj 61 394 array-rand-fill array-rand-fill-help -0.8 0.9 1678;
#X msg 216 328 seed 2829;
#X text 294 328 set the random seed;
#X obj 454 69 array define array-rand-fill-help 197898;
#X obj 454 99 array define array-rand-fill-help-2 56576;
#X msg 546 328 -1 1;
#X text 58 38 upon receiving a bang \, [array-rand-fill] fills the currently referenced array with random numbers between inclusive bounds specified as creation arguments. the random bounds can be changed on the fly by sending a message to the 2nd inlet. a 4th creation argument sets the random seed value \, which can be changed on the fly via the "seed" message., f 51;
#X connect 1 0 7 0;
#X connect 2 0 7 0;
#X connect 4 0 7 0;
#X connect 6 0 7 1;
#X connect 8 0 7 0;
#X connect 12 0 7 1;
