#N canvas 542 348 330 546 12;
#X obj 47 44 inlet;
#X obj 47 164 array size \$1;
#X obj 47 218 until;
#X obj 47 272 f;
#N canvas 634 433 341 309 message-parsing 0;
#X obj 39 26 inlet;
#X obj 39 50 route set;
#X obj 179 234 outlet;
#X obj 99 234 outlet;
#X obj 179 114 symbol;
#X connect 0 0 1 0;
#X connect 1 0 4 0;
#X connect 1 1 3 0;
#X connect 4 0 2 0;
#X restore 47 74 pd message-parsing;
#X obj 47 458 array set \$1;
#X obj 186 260 array get \$1;
#X obj 47 428 list store;
#X msg 47 384 get \$1;
#X obj 47 98 t b b;
#X obj 107 330 - 1;
#X obj 47 194 t f b f;
#X msg 65 246 0;
#X obj 47 306 t b f f;
#X obj 47 330 f;
#X obj 47 354 -;
#X obj 77 276 + 1;
#X connect 0 0 4 0;
#X connect 1 0 11 0;
#X connect 2 0 3 0;
#X connect 3 0 13 0;
#X connect 3 0 16 0;
#X connect 4 0 9 0;
#X connect 4 1 1 1;
#X connect 4 1 5 2;
#X connect 4 1 6 2;
#X connect 6 0 7 1;
#X connect 7 0 5 0;
#X connect 8 0 7 0;
#X connect 9 0 1 0;
#X connect 9 1 6 0;
#X connect 10 0 14 1;
#X connect 11 0 2 0;
#X connect 11 1 12 0;
#X connect 11 2 10 0;
#X connect 12 0 3 1;
#X connect 13 0 14 0;
#X connect 13 1 15 1;
#X connect 13 2 5 1;
#X connect 14 0 15 0;
#X connect 15 0 8 0;
#X connect 16 0 3 1;
