#N canvas 194 217 755 422 12;
#X text 282 156 set the array being referenced;
#X text 618 379 array-abs v0.0.0;
#X msg 285 186 set array-mink-help-2;
#X msg 320 230 set array-mink-help;
#X obj 434 59 array define array-mink-help 16;
#X obj 434 89 array define array-mink-help-2 12;
#N canvas 450 95 786 472 init 0;
#X obj 85 145 t f b;
#X obj 85 169 until;
#X obj 85 223 f;
#X obj 115 227 + 1;
#X msg 103 193 0;
#X obj 85 257 t b f;
#X obj 85 321 random 1000;
#X obj 485 27 loadbang;
#X obj 485 321 random 1000;
#X obj 485 51 t b b;
#X obj 455 51 bng 15 250 50 0 empty empty empty 17 7 0 10 #fcfcfc #000000 #000000;
#X obj 485 145 t f b;
#X obj 485 169 until;
#X obj 485 223 f;
#X obj 515 227 + 1;
#X msg 503 193 0;
#X obj 485 257 t b f;
#X msg 574 262 seed 2567;
#X obj 85 121 array size array-mink-help;
#X obj 485 121 array size array-mink-help-2;
#X obj 485 405 array set array-mink-help-2;
#X obj 85 409 array set array-mink-help;
#X obj 85 345 / 500;
#X obj 85 369 - 1;
#X obj 485 345 / 500;
#X obj 485 369 - 1;
#X connect 0 0 1 0;
#X connect 0 1 4 0;
#X connect 1 0 2 0;
#X connect 2 0 3 0;
#X connect 2 0 5 0;
#X connect 3 0 2 1;
#X connect 4 0 2 1;
#X connect 5 0 6 0;
#X connect 5 1 21 1;
#X connect 6 0 22 0;
#X connect 7 0 9 0;
#X connect 8 0 24 0;
#X connect 9 0 18 0;
#X connect 9 0 19 0;
#X connect 9 1 17 0;
#X connect 10 0 9 0;
#X connect 11 0 12 0;
#X connect 11 1 15 0;
#X connect 12 0 13 0;
#X connect 13 0 14 0;
#X connect 13 0 16 0;
#X connect 14 0 13 1;
#X connect 15 0 13 1;
#X connect 16 0 8 0;
#X connect 16 1 20 1;
#X connect 17 0 8 0;
#X connect 18 0 0 0;
#X connect 19 0 11 0;
#X connect 22 0 23 0;
#X connect 23 0 21 0;
#X connect 24 0 25 0;
#X connect 25 0 20 0;
#X restore 434 29 pd init;
#X listbox 41 368 50 0 0 0 - - - 0;
#X floatatom 41 200 5 0 0 1 k - - 0;
#X msg 41 107 3;
#X msg 71 137 5;
#X text 38 18 [array-mink] returns the k smallest values in the currently referenced array as a list from the 1st outlet., f 47;
#X obj 41 324 array-mink array-mink-help;
#X connect 2 0 12 0;
#X connect 3 0 12 0;
#X connect 8 0 12 0;
#X connect 9 0 8 0;
#X connect 10 0 8 0;
#X connect 12 0 7 0;
