#N canvas 181 317 381 451 12;
#X obj 47 44 inlet;
#X obj 47 144 array size \$1;
#X obj 47 198 until;
#X obj 47 252 f;
#X obj 77 256 + 1;
#X obj 47 286 t f f;
#X obj 47 316 array get \$1 0 1;
#N canvas 634 433 341 309 message-parsing 0;
#X obj 39 26 inlet;
#X obj 39 50 route set;
#X obj 179 234 outlet;
#X obj 99 234 outlet;
#X obj 179 114 symbol;
#X connect 0 0 1 0;
#X connect 1 0 4 0;
#X connect 1 1 3 0;
#X connect 4 0 2 0;
#X restore 47 74 pd message-parsing;
#X obj 47 388 array set \$1;
#X msg 65 222 1;
#X obj 47 350 +;
#X obj 77 354 f;
#X obj 47 174 t f b b;
#X obj 207 316 array get \$1 0 1;
#X msg 207 286 0;
#X connect 0 0 7 0;
#X connect 1 0 12 0;
#X connect 2 0 3 0;
#X connect 3 0 4 0;
#X connect 3 0 5 0;
#X connect 4 0 3 1;
#X connect 5 0 6 0;
#X connect 5 1 8 1;
#X connect 6 0 10 0;
#X connect 7 0 1 0;
#X connect 7 1 1 1;
#X connect 7 1 6 2;
#X connect 7 1 8 2;
#X connect 7 1 13 2;
#X connect 9 0 3 1;
#X connect 10 0 11 0;
#X connect 10 0 8 0;
#X connect 11 0 10 1;
#X connect 12 0 2 0;
#X connect 12 1 9 0;
#X connect 12 2 14 0;
#X connect 13 0 11 0;
#X connect 14 0 13 0;
