#N canvas 83 371 613 520 12;
#X obj 47 44 inlet;
#X obj 47 144 array size \$1;
#X obj 47 174 t f b;
#X obj 47 198 until;
#X obj 47 252 f;
#X obj 77 256 + 1;
#X msg 65 222 0;
#N canvas 634 433 422 300 message-parsing 0;
#X obj 39 26 inlet;
#X obj 214 234 outlet;
#X obj 134 234 outlet;
#X obj 214 114 symbol;
#X obj 39 50 route set seed;
#X obj 294 234 outlet;
#X connect 0 0 4 0;
#X connect 3 0 1 0;
#X connect 4 0 3 0;
#X connect 4 1 5 0;
#X connect 4 2 2 0;
#X restore 47 74 pd message-parsing;
#X obj 47 468 array set \$1;
#X obj 307 120 inlet;
#X obj 47 286 t b f;
#X obj 217 234 f \$3;
#X obj 217 268 - \$2;
#X obj 307 144 t b l;
#X obj 347 184 unpack f f;
#X obj 47 398 *;
#X obj 47 422 + \$2;
#X obj 217 144 loadbang;
#X msg 125 331 2;
#X obj 125 379 - 1;
#X obj 47 330 random;
#X obj 47 354 /;
#X obj 125 355 pow 16;
#X text 204 323 16-bit resolution should be safe on all systems, f 18;
#X msg 457 240 seed \$1;
#N canvas 764 170 213 367 init 0;
#X obj 39 287 outlet;
#N canvas 353 378 301 155 once 0;
#X obj 37 37 inlet;
#X obj 37 61 spigot 1;
#X obj 37 85 t f b;
#X obj 37 109 outlet;
#X msg 128 68 0;
#X connect 0 0 1 0;
#X connect 1 0 2 0;
#X connect 2 0 3 0;
#X connect 2 1 4 0;
#X connect 4 0 1 1;
#X restore 39 257 pd once;
#X msg 39 71 args;
#X obj 39 95 pdcontrol;
#X obj 39 119 list length;
#X obj 99 183 t b;
#X obj 39 143 select 4;
#X obj 99 213 f \$0;
#X obj 39 213 f \$4;
#X obj 39 31 loadbang;
#X connect 1 0 0 0;
#X connect 2 0 3 0;
#X connect 3 0 4 0;
#X connect 4 0 6 0;
#X connect 5 0 7 0;
#X connect 6 0 8 0;
#X connect 6 1 5 0;
#X connect 7 0 1 0;
#X connect 8 0 1 0;
#X connect 9 0 2 0;
#X restore 457 120 pd init;
#X floatatom 497 204 10 0 0 0 - - - 0;
#X connect 0 0 7 0;
#X connect 1 0 2 0;
#X connect 2 0 3 0;
#X connect 2 1 6 0;
#X connect 3 0 4 0;
#X connect 4 0 5 0;
#X connect 4 0 10 0;
#X connect 5 0 4 1;
#X connect 6 0 4 1;
#X connect 7 0 1 0;
#X connect 7 1 1 1;
#X connect 7 1 8 2;
#X connect 7 2 24 0;
#X connect 7 2 26 0;
#X connect 9 0 13 0;
#X connect 10 0 20 0;
#X connect 10 1 8 1;
#X connect 11 0 12 0;
#X connect 12 0 15 1;
#X connect 13 0 11 0;
#X connect 13 1 14 0;
#X connect 14 0 12 1;
#X connect 14 0 16 1;
#X connect 14 1 11 1;
#X connect 15 0 16 0;
#X connect 16 0 8 0;
#X connect 17 0 11 0;
#X connect 17 0 18 0;
#X connect 18 0 22 0;
#X connect 19 0 21 1;
#X connect 20 0 21 0;
#X connect 21 0 15 0;
#X connect 22 0 19 0;
#X connect 22 0 20 1;
#X connect 24 0 20 0;
#X connect 25 0 24 0;
#X connect 25 0 26 0;
