#N canvas 194 217 779 456 12;
#X text 354 144 set the array being referenced;
#X msg 357 174 set array-series-help-2;
#X msg 392 218 set array-series-help;
#X obj 61 394 array-series array-series-help;
#X text 624 409 array-abs v0.0.0;
#X text 59 120 series min \, max \, and exponent;
#X text 58 38 [array-series] fills the currently referenced array with a series specified by a message to its 1st inlet. series messages specify a starting value \, ending value \, and exponent.;
#X msg 61 150 -0.1 1.8 1;
#X msg 91 180 0.07 3.5 4;
#X obj 454 319 array define array-series-help 16;
#X obj 454 349 array define array-series-help-2 12;
#N canvas 779 117 450 177 init 0;
#X obj 57 30 loadbang;
#X msg 57 74 \; array-series-help bounds 0 3.5 15 -0.1 \; array-series-help-2 bounds 0 3.5 11 -0.1 \;;
#X connect 0 0 1 0;
#X restore 454 289 pd init;
#X msg 131 240 0.07 3.5 \$1;
#X floatatom 131 210 5 0 10 0 - - - 0;
#X connect 1 0 3 0;
#X connect 2 0 3 0;
#X connect 7 0 3 0;
#X connect 8 0 3 0;
#X connect 12 0 3 0;
#X connect 13 0 12 0;
