#N canvas 710 150 586 733 12;
#X obj 95 18 inlet;
#X obj 435 310 array size \$1;
#N canvas 634 433 341 309 message-parsing 0;
#X obj 39 26 inlet;
#X obj 39 50 route set;
#X obj 179 234 outlet;
#X obj 99 234 outlet;
#X obj 179 114 symbol;
#X connect 0 0 1 0;
#X connect 1 0 4 0;
#X connect 1 1 3 0;
#X connect 4 0 2 0;
#X restore 95 48 pd message-parsing;
#X obj 202 654 array set \$1;
#X obj 267 207 array get \$1;
#X obj 202 548 list store;
#X obj 414 403 until;
#X obj 414 457 f;
#X obj 444 461 + 1;
#X msg 432 427 0;
#X obj 414 379 t f b;
#X obj 176 165 > 0;
#X obj 95 196 list prepend;
#X obj 95 220 route 0 1;
#X obj 435 340 -;
#X obj 115 297 array size \$1;
#X obj 155 397 mod;
#X obj 115 327 t f b f;
#X obj 155 367 f;
#X obj 115 397 -;
#X obj 195 367 * -1;
#X msg 292 415 get 0 \$1;
#X obj 414 273 t f b f f;
#X obj 414 491 t b f;
#X msg 414 515 0;
#X msg 115 459 get \$2 \$1;
#X obj 115 432 pack f f;
#X msg 334 535 0;
#X obj 41 493 until;
#X obj 41 527 f;
#X obj 71 531 + 1;
#X obj 41 561 t b f;
#X msg 41 585 0;
#X obj 95 83 t f f b;
#X obj 95 260 t f b f b;
#X obj 41 463 abs;
#X connect 0 0 2 0;
#X connect 1 0 14 0;
#X connect 2 0 33 0;
#X connect 2 1 1 1;
#X connect 2 1 3 2;
#X connect 2 1 4 2;
#X connect 2 1 15 1;
#X connect 4 0 5 1;
#X connect 5 0 3 0;
#X connect 6 0 7 0;
#X connect 7 0 8 0;
#X connect 7 0 23 0;
#X connect 8 0 7 1;
#X connect 9 0 7 1;
#X connect 10 0 6 0;
#X connect 10 1 9 0;
#X connect 11 0 12 1;
#X connect 12 0 13 0;
#X connect 13 0 34 0;
#X connect 13 1 22 0;
#X connect 14 0 21 0;
#X connect 15 0 17 0;
#X connect 16 0 19 1;
#X connect 17 0 19 0;
#X connect 17 1 18 0;
#X connect 17 2 16 1;
#X connect 18 0 16 0;
#X connect 19 0 26 0;
#X connect 19 0 29 1;
#X connect 20 0 18 1;
#X connect 20 0 26 1;
#X connect 21 0 5 0;
#X connect 22 0 10 0;
#X connect 22 1 1 0;
#X connect 22 2 14 1;
#X connect 22 3 3 1;
#X connect 23 0 24 0;
#X connect 23 1 3 1;
#X connect 24 0 3 0;
#X connect 25 0 5 0;
#X connect 26 0 25 0;
#X connect 27 0 3 1;
#X connect 28 0 29 0;
#X connect 29 0 30 0;
#X connect 29 0 31 0;
#X connect 30 0 29 1;
#X connect 31 0 32 0;
#X connect 31 1 3 1;
#X connect 32 0 3 0;
#X connect 33 0 12 0;
#X connect 33 1 11 0;
#X connect 33 2 4 0;
#X connect 34 0 35 0;
#X connect 34 1 15 0;
#X connect 34 2 20 0;
#X connect 34 3 27 0;
#X connect 35 0 28 0;
