#N canvas 319 398 262 473 12;
#X obj 47 44 inlet;
#X obj 47 144 array size \$1;
#X obj 47 198 until;
#X obj 47 252 f;
#X obj 77 256 + 1;
#X msg 65 222 0;
#N canvas 634 433 341 309 message-parsing 0;
#X obj 39 26 inlet;
#X obj 39 50 route set;
#X obj 179 234 outlet;
#X obj 99 234 outlet;
#X obj 179 114 symbol;
#X connect 0 0 1 0;
#X connect 1 0 4 0;
#X connect 1 1 3 0;
#X connect 4 0 2 0;
#X restore 47 74 pd message-parsing;
#X obj 47 378 array set \$1;
#X obj 47 98 t b l;
#X obj 47 286 t b f;
#N canvas 352 190 535 593 walk 0;
#X obj 156 26 inlet;
#X obj 156 192 f;
#X obj 63 344 random 2;
#X floatatom 83 382 5 0 0 0 - - - 0;
#X obj 156 297 t b b f;
#X obj 125 549 +;
#X obj 125 509 *;
#X msg 63 462 -1;
#X msg 96 462 1;
#X text 387 337 output;
#X text 18 343 sign;
#X obj 63 423 sel 0 1;
#X obj 351 335 f;
#X obj 265 110 moses;
#X obj 365 110 moses;
#X obj 265 221 +;
#X obj 315 221 -;
#X obj 265 155 t b b f;
#X obj 366 56 unpack f f f f;
#X obj 265 197 f;
#X obj 315 197 f;
#X obj 415 197 f;
#X obj 415 221 -;
#X obj 415 155 t b f;
#X obj 465 197 -;
#X floatatom 163 424 5 0 0 0 - - - 0;
#X obj 143 392 *;
#X obj 366 26 inlet;
#X obj 351 479 outlet;
#X obj 143 344 random 65536;
#X obj 143 368 / 65535;
#X text 210 424 step magnitude;
#X connect 0 0 1 0;
#X connect 1 0 4 0;
#X connect 2 0 3 0;
#X connect 2 0 11 0;
#X connect 4 0 2 0;
#X connect 4 1 29 0;
#X connect 4 2 5 1;
#X connect 5 0 13 0;
#X connect 6 0 5 0;
#X connect 7 0 6 0;
#X connect 8 0 6 0;
#X connect 11 0 7 0;
#X connect 11 1 8 0;
#X connect 12 0 1 1;
#X connect 12 0 28 0;
#X connect 13 0 17 0;
#X connect 13 1 14 0;
#X connect 14 0 12 0;
#X connect 14 1 23 0;
#X connect 15 0 12 0;
#X connect 16 0 15 1;
#X connect 17 0 19 0;
#X connect 17 1 20 0;
#X connect 17 2 16 1;
#X connect 18 0 1 1;
#X connect 18 1 26 1;
#X connect 18 2 19 1;
#X connect 18 2 20 1;
#X connect 18 2 13 1;
#X connect 18 3 14 1;
#X connect 18 3 21 1;
#X connect 18 3 24 1;
#X connect 19 0 15 0;
#X connect 20 0 16 0;
#X connect 21 0 22 0;
#X connect 22 0 12 0;
#X connect 23 0 21 0;
#X connect 23 1 24 0;
#X connect 24 0 22 1;
#X connect 26 0 25 0;
#X connect 26 0 6 1;
#X connect 27 0 18 0;
#X connect 29 0 30 0;
#X connect 30 0 26 0;
#X restore 47 330 pd walk;
#X obj 47 174 t f b;
#X connect 0 0 6 0;
#X connect 1 0 11 0;
#X connect 2 0 3 0;
#X connect 3 0 4 0;
#X connect 3 0 9 0;
#X connect 4 0 3 1;
#X connect 5 0 3 1;
#X connect 6 0 8 0;
#X connect 6 1 1 1;
#X connect 6 1 7 2;
#X connect 8 0 1 0;
#X connect 8 1 10 1;
#X connect 9 0 10 0;
#X connect 9 1 7 1;
#X connect 10 0 7 0;
#X connect 11 0 2 0;
#X connect 11 1 5 0;
