#N canvas 186 265 764 456 12;
#X text 360 304 set the array being referenced;
#X text 614 409 array-abs v0.0.0;
#N canvas 432 136 803 423 init 0;
#X obj 85 145 t f b;
#X obj 85 169 until;
#X obj 85 223 f;
#X obj 115 227 + 1;
#X msg 103 193 0;
#X obj 85 257 t b f;
#X obj 485 27 loadbang;
#X obj 485 51 t b b;
#X obj 455 51 bng 15 250 50 0 empty empty empty 17 7 0 10 #fcfcfc #000000 #000000;
#X obj 485 145 t f b;
#X obj 485 169 until;
#X obj 485 223 f;
#X obj 515 227 + 1;
#X msg 503 193 0;
#X obj 485 257 t b f;
#X msg 574 262 seed 2567;
#X obj 485 121 array size array-delete-help-2;
#X obj 85 121 array size array-delete-help;
#X obj 85 369 array set array-delete-help;
#X obj 85 321 random 10;
#X obj 485 321 random 10;
#X obj 485 365 array set array-delete-help-2;
#X msg 207 207 \; array-delete-help resize 16 \; array-delete-help-2 resize 7 \; array-delete-help bounds 0 9 15 0 \; array-delete-help-2 bounds 0 9 6 0 \;;
#X connect 0 0 1 0;
#X connect 0 1 4 0;
#X connect 1 0 2 0;
#X connect 2 0 3 0;
#X connect 2 0 5 0;
#X connect 3 0 2 1;
#X connect 4 0 2 1;
#X connect 5 0 19 0;
#X connect 5 1 18 1;
#X connect 6 0 7 0;
#X connect 7 0 16 0;
#X connect 7 0 17 0;
#X connect 7 1 15 0;
#X connect 7 1 22 0;
#X connect 8 0 7 0;
#X connect 9 0 10 0;
#X connect 9 1 13 0;
#X connect 10 0 11 0;
#X connect 11 0 12 0;
#X connect 11 0 14 0;
#X connect 12 0 11 1;
#X connect 13 0 11 1;
#X connect 14 0 20 0;
#X connect 14 1 21 1;
#X connect 15 0 20 0;
#X connect 16 0 9 0;
#X connect 17 0 0 0;
#X connect 19 0 18 0;
#X connect 20 0 21 0;
#X restore 476 69 pd init;
#X msg 153 284 set array-delete-help-2;
#X msg 188 328 set array-delete-help;
#X obj 61 414 bng 19 250 50 0 empty empty index-out-of-bounds 25 9 0 12 #fcfcfc #000000 #000000;
#X msg 61 190 4 2;
#X msg 91 220 1 6;
#X text 99 190 starting at index 4 \, delete 2 values;
#X text 129 220 starting at index 1 \, delete 6 values;
#X obj 61 384 array-delete array-delete-help;
#X obj 476 99 array define array-delete-help;
#X obj 476 129 array define array-delete-help-2;
#X obj 281 414 bng 19 250 50 0 empty empty no-data-left 25 9 0 12 #fcfcfc #000000 #000000;
#X text 58 28 [array-delete] deletes values from the currently referenced array \, resizing it as necessary. its 1st inlet receives a list specifying a starting index and number of values to delete. if a deletion request involves an out of bounds index \, a bang is sent out the 1st outlet. if it removes all elements from the array \, leaving no remaining data \, a bang is sent out the 2nd outlet., f 53;
#X text 473 167 note: it is not possible to set the size of an [array] to zero. when a deletion request leaves no data remaining \, the size of the array will still be one., f 36;
#X connect 3 0 10 0;
#X connect 4 0 10 0;
#X connect 6 0 10 0;
#X connect 7 0 10 0;
#X connect 10 0 5 0;
#X connect 10 1 13 0;
