#N canvas 112 244 512 549 12;
#X obj 43 32 inlet;
#N canvas 634 433 341 309 message-parsing 0;
#X obj 39 26 inlet;
#X obj 39 50 route set;
#X obj 179 234 outlet;
#X obj 99 234 outlet;
#X obj 179 114 symbol;
#X connect 0 0 1 0;
#X connect 1 0 4 0;
#X connect 1 1 3 0;
#X connect 4 0 2 0;
#X restore 43 62 pd message-parsing;
#X obj 239 133 array-range \$1;
#X msg 166 102 set \$1;
#X obj 239 157 t b f;
#X msg 239 181 1;
#X obj 239 206 /;
#X obj 373 172 array min \$1;
#X obj 373 406 array-offset \$1;
#X obj 373 196 * -1;
#X obj 239 406 array-scale \$1;
#X obj 180 490 array-scale \$1;
#N canvas 834 120 393 404 get-min-and-range 0;
#X obj 47 27 inlet;
#X obj 97 91 unpack f f;
#X obj 97 135 >;
#X text 126 27 handle case where upper limit is first element in list, f 29;
#X obj 47 51 t l l;
#X obj 47 175 list prepend;
#X obj 47 199 route 0 1;
#X obj 97 239 unpack f f;
#X obj 47 323 -;
#X obj 47 239 swap;
#X obj 47 347 outlet;
#X text 106 346 range;
#X obj 197 347 outlet;
#X text 256 346 min;
#X connect 0 0 4 0;
#X connect 1 0 2 0;
#X connect 1 1 2 1;
#X connect 2 0 5 1;
#X connect 4 0 5 0;
#X connect 4 1 1 0;
#X connect 5 0 6 0;
#X connect 6 0 9 0;
#X connect 6 1 7 0;
#X connect 7 0 8 0;
#X connect 7 1 8 1;
#X connect 7 1 12 0;
#X connect 8 0 10 0;
#X connect 9 0 8 0;
#X connect 9 1 8 1;
#X connect 9 1 12 0;
#X restore 43 206 pd get-min-and-range;
#X obj 43 142 t l b b;
#X obj 43 490 array-offset \$1;
#X obj 239 370 f;
#X obj 373 370 f;
#X obj 180 316 t f b b;
#X text 299 242 get range before executing the offset operation, f 21;
#X obj 43 270 swap;
#X text 10 270 min;
#X text 90 270 range;
#X connect 0 0 1 0;
#X connect 1 0 13 0;
#X connect 1 1 3 0;
#X connect 1 1 7 2;
#X connect 2 0 4 0;
#X connect 3 0 2 0;
#X connect 3 0 8 0;
#X connect 3 0 10 0;
#X connect 3 0 11 0;
#X connect 3 0 14 0;
#X connect 4 0 5 0;
#X connect 4 1 6 1;
#X connect 5 0 6 0;
#X connect 6 0 15 1;
#X connect 7 0 9 0;
#X connect 9 0 16 1;
#X connect 12 0 19 0;
#X connect 12 1 19 1;
#X connect 13 0 12 0;
#X connect 13 1 2 0;
#X connect 13 2 7 0;
#X connect 15 0 10 0;
#X connect 16 0 8 0;
#X connect 17 0 11 0;
#X connect 17 1 15 0;
#X connect 17 2 16 0;
#X connect 19 0 14 0;
#X connect 19 1 17 0;
