#N canvas 196 309 491 613 12;
#X obj 47 44 inlet;
#X obj 47 498 outlet;
#X obj 187 302 array size \$1;
#X obj 187 332 t f b;
#X obj 187 356 until;
#X obj 187 410 f;
#X obj 217 414 + 1;
#X msg 205 380 0;
#X obj 187 498 -;
#X obj 187 522 abs;
#X obj 187 444 t f f;
#X obj 47 158 t b b f;
#X obj 274 212 t f f;
#X obj 384 326 outlet;
#X obj 187 474 array get \$1 0 1;
#X obj 47 358 array get \$1 0 1;
#N canvas 634 433 604 389 message-parsing 0;
#X obj 39 26 inlet;
#X obj 39 50 route set;
#X obj 179 234 outlet;
#X obj 99 234 outlet;
#X obj 179 114 symbol;
#X obj 399 148 loadbang;
#X obj 314 250 array size \$1;
#X msg 314 274 resize \$1;
#X obj 314 324 array define \$0-array-nearest-diffs;
#X obj 314 160 t b s;
#X connect 0 0 1 0;
#X connect 1 0 4 0;
#X connect 1 1 3 0;
#X connect 4 0 2 0;
#X connect 4 0 9 0;
#X connect 5 0 6 0;
#X connect 6 0 7 0;
#X connect 7 0 8 0;
#X connect 9 0 6 0;
#X connect 9 1 6 1;
#X restore 47 74 pd message-parsing;
#X obj 47 182 array min \$0-array-nearest-diffs;
#X obj 187 546 array set \$0-array-nearest-diffs;
#X connect 0 0 16 0;
#X connect 2 0 3 0;
#X connect 3 0 4 0;
#X connect 3 1 7 0;
#X connect 4 0 5 0;
#X connect 5 0 6 0;
#X connect 5 0 10 0;
#X connect 6 0 5 1;
#X connect 7 0 5 1;
#X connect 8 0 9 0;
#X connect 9 0 18 0;
#X connect 10 0 14 0;
#X connect 10 1 18 1;
#X connect 11 0 17 0;
#X connect 11 1 2 0;
#X connect 11 2 8 1;
#X connect 12 0 15 0;
#X connect 12 1 13 0;
#X connect 14 0 8 0;
#X connect 15 0 1 0;
#X connect 16 0 11 0;
#X connect 16 1 15 2;
#X connect 16 1 2 1;
#X connect 16 1 14 2;
#X connect 17 1 12 0;
