#N canvas 336 306 397 541 12;
#X obj 47 44 inlet;
#X obj 47 184 array size \$1;
#X obj 47 238 until;
#X obj 47 292 f;
#X obj 77 296 + 1;
#X msg 65 262 0;
#X obj 47 326 t f f;
#N canvas 634 433 341 309 message-parsing 0;
#X obj 39 26 inlet;
#X obj 39 50 route set;
#X obj 179 234 outlet;
#X obj 99 234 outlet;
#X obj 179 114 symbol;
#X connect 0 0 1 0;
#X connect 1 0 4 0;
#X connect 1 1 3 0;
#X connect 4 0 2 0;
#X restore 47 74 pd message-parsing;
#X obj 47 478 array set \$1;
#X obj 47 98 t b l;
#X obj 187 138 unpack f f f;
#X obj 286 195 max 0;
#X obj 187 182 swap;
#X obj 187 206 -;
#X obj 47 214 t f b b f;
#X msg 117 310 1;
#X obj 117 334 /;
#X obj 167 334 - 1;
#X obj 47 370 *;
#X obj 47 394 pow;
#X obj 47 418 *;
#X obj 47 442 +;
#X connect 0 0 7 0;
#X connect 1 0 14 0;
#X connect 2 0 3 0;
#X connect 3 0 4 0;
#X connect 3 0 6 0;
#X connect 4 0 3 1;
#X connect 5 0 3 1;
#X connect 6 0 18 0;
#X connect 6 1 8 1;
#X connect 7 0 9 0;
#X connect 7 1 1 1;
#X connect 7 1 8 2;
#X connect 9 0 1 0;
#X connect 9 1 10 0;
#X connect 10 0 12 0;
#X connect 10 0 21 1;
#X connect 10 1 12 1;
#X connect 10 2 11 0;
#X connect 11 0 19 1;
#X connect 12 0 13 0;
#X connect 12 1 13 1;
#X connect 13 0 20 1;
#X connect 14 0 2 0;
#X connect 14 1 5 0;
#X connect 14 2 15 0;
#X connect 14 3 17 0;
#X connect 15 0 16 0;
#X connect 16 0 18 1;
#X connect 17 0 16 1;
#X connect 18 0 19 0;
#X connect 19 0 20 0;
#X connect 20 0 21 0;
#X connect 21 0 8 0;
