#N canvas 196 309 308 341 12;
#X obj 47 44 inlet;
#N canvas 634 433 341 309 message-parsing 0;
#X obj 39 26 inlet;
#X obj 39 50 route set;
#X obj 179 234 outlet;
#X obj 99 234 outlet;
#X obj 179 114 symbol;
#X connect 0 0 1 0;
#X connect 1 0 4 0;
#X connect 1 1 3 0;
#X connect 4 0 2 0;
#X restore 47 74 pd message-parsing;
#X obj 47 270 outlet;
#X obj 47 98 t b b;
#X obj 47 144 array sum \$1;
#X obj 167 144 array size \$1;
#X obj 47 198 /;
#X connect 0 0 1 0;
#X connect 1 0 3 0;
#X connect 1 1 4 2;
#X connect 1 1 5 1;
#X connect 3 0 4 0;
#X connect 3 1 5 0;
#X connect 4 0 6 0;
#X connect 5 0 6 1;
#X connect 6 0 2 0;
