#N canvas 511 132 346 620 12;
#X obj 47 44 inlet;
#X obj 47 558 outlet;
#X obj 47 142 array size \$1;
#X obj 67 206 until;
#X obj 67 260 f;
#X obj 97 264 + 1;
#X msg 85 230 0;
#X obj 67 294 t f f;
#X obj 231 495 outlet;
#X obj 67 324 array get \$1 0 1;
#N canvas 634 433 287 313 message-parsing 0;
#X obj 39 26 inlet;
#X obj 39 50 route set;
#X obj 179 234 outlet;
#X obj 99 234 outlet;
#X obj 179 114 symbol;
#X connect 0 0 1 0;
#X connect 1 0 4 0;
#X connect 1 1 3 0;
#X connect 4 0 2 0;
#X restore 47 74 pd message-parsing;
#X obj 231 455 list store;
#X msg 231 415 append \$1;
#X obj 47 98 t b f;
#X obj 67 372 select 1;
#X obj 67 396 t b b;
#X obj 105 480 f;
#X obj 135 484 + 1;
#X obj 47 510 f;
#X obj 231 375 f;
#X obj 47 172 t b b f b b;
#X msg 123 440 1;
#X msg 65 480 0;
#X obj 67 348 >;
#X connect 0 0 10 0;
#X connect 2 0 20 0;
#X connect 3 0 4 0;
#X connect 4 0 5 0;
#X connect 4 0 7 0;
#X connect 5 0 4 1;
#X connect 6 0 4 1;
#X connect 7 0 9 0;
#X connect 7 1 19 1;
#X connect 9 0 23 0;
#X connect 10 0 13 0;
#X connect 10 1 2 1;
#X connect 10 1 9 2;
#X connect 11 0 8 0;
#X connect 12 0 11 0;
#X connect 13 0 2 0;
#X connect 13 1 23 1;
#X connect 14 0 15 0;
#X connect 15 0 16 0;
#X connect 15 1 19 0;
#X connect 16 0 17 0;
#X connect 16 0 18 1;
#X connect 17 0 16 1;
#X connect 18 0 1 0;
#X connect 19 0 12 0;
#X connect 20 0 18 0;
#X connect 20 1 11 0;
#X connect 20 2 3 0;
#X connect 20 3 6 0;
#X connect 20 3 21 0;
#X connect 20 3 22 0;
#X connect 20 4 11 1;
#X connect 21 0 16 1;
#X connect 22 0 18 1;
#X connect 23 0 14 0;
