#N canvas 194 217 779 456 12;
#X floatatom 61 358 5 0 0 3 nearest-value - - 0;
#X floatatom 321 358 5 0 0 3 index - - 0;
#X obj 61 172 random 1000;
#X floatatom 61 206 5 0 0 1 query-value - - 0;
#N canvas 208 233 803 423 init 0;
#X obj 85 145 t f b;
#X obj 85 169 until;
#X obj 85 223 f;
#X obj 115 227 + 1;
#X msg 103 193 0;
#X obj 85 257 t b f;
#X obj 85 321 random 1000;
#X obj 485 27 loadbang;
#X obj 485 321 random 1000;
#X obj 485 51 t b b;
#X obj 455 51 bng 15 250 50 0 empty empty empty 17 7 0 10 #fcfcfc #000000 #000000;
#X obj 485 145 t f b;
#X obj 485 169 until;
#X obj 485 223 f;
#X obj 515 227 + 1;
#X msg 503 193 0;
#X obj 485 257 t b f;
#X obj 485 121 array size array-nearest-help-2;
#X msg 574 262 seed 2567;
#X obj 485 365 array set array-nearest-help-2;
#X obj 85 369 array set array-nearest-help;
#X obj 85 121 array size array-nearest-help;
#X connect 0 0 1 0;
#X connect 0 1 4 0;
#X connect 1 0 2 0;
#X connect 2 0 3 0;
#X connect 2 0 5 0;
#X connect 3 0 2 1;
#X connect 4 0 2 1;
#X connect 5 0 6 0;
#X connect 5 1 20 1;
#X connect 6 0 20 0;
#X connect 7 0 9 0;
#X connect 8 0 19 0;
#X connect 9 0 17 0;
#X connect 9 0 21 0;
#X connect 9 1 18 0;
#X connect 10 0 9 0;
#X connect 11 0 12 0;
#X connect 11 1 15 0;
#X connect 12 0 13 0;
#X connect 13 0 14 0;
#X connect 13 0 16 0;
#X connect 14 0 13 1;
#X connect 15 0 13 1;
#X connect 16 0 8 0;
#X connect 16 1 19 1;
#X connect 17 0 11 0;
#X connect 18 0 8 0;
#X connect 21 0 0 0;
#X restore 484 289 pd init;
#X msg 274 167 set array-nearest-help-2;
#X msg 309 211 set array-nearest-help;
#X text 271 137 set the array being referenced;
#X obj 484 319 array define array-nearest-help 16;
#X obj 484 349 array define array-nearest-help-2 12;
#X obj 61 304 array-nearest array-nearest-help;
#X obj 61 142 bng 19 250 50 0 empty empty empty 0 -10 0 12 #fcfcfc #000000 #000000;
#X text 58 38 [array-nearest] receives a query value at its 1st inlet and searches for the nearest value in the currently referenced array. it returns the nearest value and its index via the 1st and 2nd outlets.;
#X text 624 409 array-abs v0.0.1;
#X connect 2 0 3 0;
#X connect 3 0 10 0;
#X connect 5 0 10 0;
#X connect 6 0 10 0;
#X connect 10 0 0 0;
#X connect 10 1 1 0;
#X connect 11 0 2 0;
