#N canvas 194 217 745 405 12;
#X text 129 203 set the array being referenced;
#X obj 37 177 bng 19 250 50 0 empty empty empty 0 -10 0 12 #fcfcfc #000000 #000000;
#X msg 132 233 set array-integrate-help-2;
#X msg 167 277 set array-integrate-help;
#X obj 427 163 array define -k array-integrate-help 16;
#A 0 0.727 0.654 0.758 0.886 0.614 0.505 0.939 0.18 0.881 0.808 0.132 0.178 0.107 0.543 0.763 0.566;
#X obj 427 193 array define -k array-integrate-help-2 12;
#A 0 0.858 0.756 0.705 0.397 0.788 0.497 0.916 0.495 0.243 0.012 0.731 0.312;
#X obj 37 347 array-integrate array-integrate-help;
#N canvas 208 233 803 468 init 0;
#X obj 85 145 t f b;
#X obj 85 169 until;
#X obj 85 223 f;
#X obj 115 227 + 1;
#X msg 103 193 0;
#X obj 85 257 t b f;
#X obj 485 27 loadbang;
#X obj 485 51 t b b;
#X obj 455 51 bng 15 250 50 0 empty empty empty 17 7 0 10 #fcfcfc #000000 #000000;
#X obj 485 145 t f b;
#X obj 485 169 until;
#X obj 485 223 f;
#X obj 515 227 + 1;
#X msg 503 193 0;
#X obj 485 257 t b f;
#X msg 574 262 seed 2567;
#X obj 85 121 array size array-integrate-help;
#X obj 485 121 array size array-integrate-help-2;
#X obj 85 321 random 1000;
#X obj 85 345 / 1000;
#X obj 485 321 random 1000;
#X obj 485 345 / 1000;
#X obj 485 395 array set array-integrate-help-2;
#X obj 85 399 array set array-integrate-help;
#X connect 0 0 1 0;
#X connect 0 1 4 0;
#X connect 1 0 2 0;
#X connect 2 0 3 0;
#X connect 2 0 5 0;
#X connect 3 0 2 1;
#X connect 4 0 2 1;
#X connect 5 0 18 0;
#X connect 5 1 23 1;
#X connect 6 0 7 0;
#X connect 7 0 16 0;
#X connect 7 0 17 0;
#X connect 7 1 15 0;
#X connect 8 0 7 0;
#X connect 9 0 10 0;
#X connect 9 1 13 0;
#X connect 10 0 11 0;
#X connect 11 0 12 0;
#X connect 11 0 14 0;
#X connect 12 0 11 1;
#X connect 13 0 11 1;
#X connect 14 0 20 0;
#X connect 14 1 22 1;
#X connect 15 0 20 0;
#X connect 16 0 0 0;
#X connect 17 0 9 0;
#X connect 18 0 19 0;
#X connect 19 0 23 0;
#X connect 20 0 21 0;
#X connect 21 0 22 0;
#X restore 427 133 pd init;
#X text 34 31 upon receiving a bang \, [array-integrate] accumulates values in the currently referenced array such that the new value_i = value_i + value_i-1 . . . value_0. this is useful to convert an array of inter onset durations to the total duration at any given time step.;
#X text 583 356 array-abs v0.1.0;
#X connect 1 0 6 0;
#X connect 2 0 6 0;
#X connect 3 0 6 0;
