#N canvas 194 217 779 456 12;
#X text 182 213 set the array being referenced;
#X msg 185 243 set array-random-walk-help-2;
#X msg 220 287 set array-random-walk-help;
#X obj 61 394 array-random-walk array-random-walk-help;
#X text 624 409 array-abs v0.0.0;
#N canvas 815 145 450 177 init 0;
#X obj 57 30 loadbang;
#X msg 57 74 \; array-random-walk-help bounds 0 109 199 -22 \; array-random-walk-help-2 bounds 0 4 89 1 \;;
#X connect 0 0 1 0;
#X restore 454 289 pd init;
#X obj 454 319 array define array-random-walk-help 200;
#X obj 454 349 array define array-random-walk-help-2 90;
#X text 59 120 starting value \, maximum step magnitude \, lower limit \, upper limit, f 69;
#X text 58 38 [array-random-walk] fills the currently referenced array with random walk data according upon receiving a list containing a ting value \, maximum step magnitude \, lower limit \, and upper limit at its 1st inlet.;
#X msg 61 150 77.7 4.8 -21.2 108.9;
#X msg 91 180 2 0.25 1 4;
#X connect 1 0 3 0;
#X connect 2 0 3 0;
#X connect 10 0 3 0;
#X connect 11 0 3 0;
