#N canvas 194 217 729 456 12;
#X text 270 216 set the array being referenced;
#X text 564 409 array-abs v0.0.0;
#X obj 456 99 array define array-append-help 16;
#X obj 456 129 array define array-append-help-2 7;
#X text 59 140 values to append;
#X msg 61 170 8 2 0 1;
#X msg 91 200 9 4;
#N canvas 512 124 803 423 init 0;
#X obj 85 145 t f b;
#X obj 85 169 until;
#X obj 85 223 f;
#X obj 115 227 + 1;
#X msg 103 193 0;
#X obj 85 257 t b f;
#X obj 485 27 loadbang;
#X obj 485 51 t b b;
#X obj 455 51 bng 15 250 50 0 empty empty empty 17 7 0 10 #fcfcfc #000000 #000000;
#X obj 485 145 t f b;
#X obj 485 169 until;
#X obj 485 223 f;
#X obj 515 227 + 1;
#X msg 503 193 0;
#X obj 485 257 t b f;
#X msg 574 262 seed 2567;
#X obj 485 121 array size array-append-help-2;
#X obj 85 121 array size array-append-help;
#X obj 85 369 array set array-append-help;
#X obj 85 321 random 10;
#X obj 485 321 random 10;
#X obj 485 365 array set array-append-help-2;
#X msg 207 207 \; array-append-help bounds 0 9 15 0 \; array-append-help-2 bounds 0 9 6 0 \;;
#X connect 0 0 1 0;
#X connect 0 1 4 0;
#X connect 1 0 2 0;
#X connect 2 0 3 0;
#X connect 2 0 5 0;
#X connect 3 0 2 1;
#X connect 4 0 2 1;
#X connect 5 0 19 0;
#X connect 5 1 18 1;
#X connect 6 0 7 0;
#X connect 7 0 16 0;
#X connect 7 0 17 0;
#X connect 7 0 22 0;
#X connect 7 1 15 0;
#X connect 8 0 7 0;
#X connect 9 0 10 0;
#X connect 9 1 13 0;
#X connect 10 0 11 0;
#X connect 11 0 12 0;
#X connect 11 0 14 0;
#X connect 12 0 11 1;
#X connect 13 0 11 1;
#X connect 14 0 20 0;
#X connect 14 1 21 1;
#X connect 15 0 20 0;
#X connect 16 0 9 0;
#X connect 17 0 0 0;
#X connect 19 0 18 0;
#X connect 20 0 21 0;
#X restore 456 69 pd init;
#X obj 61 384 array-append array-append-help;
#X msg 273 246 set array-append-help-2;
#X msg 308 290 set array-append-help;
#X text 58 38 [array-append] appends the list of values passed in to its 1st inlet to the end of the currently referenced array \, resizing the array as necessary., f 44;
#X connect 5 0 8 0;
#X connect 6 0 8 0;
#X connect 9 0 8 0;
#X connect 10 0 8 0;
