#N canvas 463 283 543 604 12;
#X obj 37 34 inlet;
#N canvas 634 433 341 309 message-parsing 0;
#X obj 39 26 inlet;
#X obj 39 50 route set;
#X obj 179 234 outlet;
#X obj 99 234 outlet;
#X obj 179 114 symbol;
#X obj 99 114 symbol;
#X connect 0 0 1 0;
#X connect 1 0 4 0;
#X connect 1 1 5 0;
#X connect 4 0 2 0;
#X connect 5 0 3 0;
#X restore 37 64 pd message-parsing;
#X obj 267 424 array set \$1;
#X obj 267 332 array get;
#X obj 37 134 array size;
#X obj 37 88 t b s;
#X obj 357 332 pack f s;
#X obj 410 252 loadbang;
#X obj 410 276 symbol \$1;
#X msg 357 356 \; \$2 resize \$1 \;;
#X obj 267 356 t l b;
#X obj 357 302 + 3;
#X msg 307 394 1;
#X obj 177 532 array set \$1;
#X obj 177 452 array get \$1 0 1;
#X obj 177 476 t f b;
#X msg 217 505 0;
#X obj 37 542 array set \$1;
#X obj 37 482 array get \$1 0 2;
#X msg 37 454 1;
#X obj 77 517 + 1;
#X text 263 73 \$1: destination array;
#X obj 37 168 t b f f b f;
#X connect 0 0 1 0;
#X connect 1 0 5 0;
#X connect 1 1 2 2;
#X connect 1 1 6 1;
#X connect 1 1 14 2;
#X connect 1 1 18 2;
#X connect 1 1 13 2;
#X connect 1 1 17 2;
#X connect 3 0 10 0;
#X connect 4 0 22 0;
#X connect 5 0 4 0;
#X connect 5 1 4 1;
#X connect 5 1 3 2;
#X connect 6 0 9 0;
#X connect 7 0 8 0;
#X connect 8 0 6 1;
#X connect 10 0 2 0;
#X connect 10 1 12 0;
#X connect 11 0 6 0;
#X connect 12 0 2 1;
#X connect 14 0 15 0;
#X connect 15 0 13 0;
#X connect 15 1 16 0;
#X connect 16 0 13 1;
#X connect 18 0 17 0;
#X connect 19 0 18 0;
#X connect 20 0 17 1;
#X connect 22 0 19 0;
#X connect 22 1 20 0;
#X connect 22 2 14 0;
#X connect 22 3 3 0;
#X connect 22 4 11 0;
