#N canvas 194 217 779 456 12;
#X floatatom 61 358 5 0 0 3 occurrences - - 0;
#X floatatom 61 176 5 0 0 1 query-value - - 0;
#N canvas 397 140 759 278 init 0;
#X obj 408 32 loadbang;
#X obj 408 56 t b b;
#X obj 378 56 bng 15 250 50 0 empty empty empty 17 7 0 10 #fcfcfc #000000 #000000;
#X obj 440 126 array size array-greater-help-2;
#X obj 40 126 array size array-greater-help;
#X obj 440 150 - 1;
#X obj 40 150 - 1;
#X msg 40 174 \; array-greater-help bounds 0 9 \$1 0 \;;
#X msg 440 174 \; array-greater-help-2 bounds 0 9 \$1 0 \;;
#X connect 0 0 1 0;
#X connect 1 0 4 0;
#X connect 1 1 3 0;
#X connect 2 0 1 0;
#X connect 3 0 5 0;
#X connect 4 0 6 0;
#X connect 5 0 8 0;
#X connect 6 0 7 0;
#X restore 454 259 pd init;
#X msg 274 167 set array-greater-help-2;
#X msg 309 211 set array-greater-help;
#X text 271 137 set the array being referenced;
#X obj 61 304 array-greater array-greater-help;
#X text 624 409 array-abs v0.0.0;
#X listbox 291 358 40 0 0 3 indices - - 0;
#X obj 454 289 array define -k array-greater-help 16;
#A 0 3 9 4 8 8 7 8 8 2 8 1 4 1 0 5 5;
#X obj 454 319 array define -k array-greater-help-2 12;
#A 0 8 7 7 3 7 4 9 4 2 0 7 3;
#X text 58 38 [array-greater] receives a query value at its 1st inlet and searches for values that exceed it in the currently referenced array. it returns the number of greater values from its 1st outlet \, and a list of their indices from the 2nd outlet.;
#X connect 1 0 6 0;
#X connect 3 0 6 0;
#X connect 4 0 6 0;
#X connect 6 0 0 0;
#X connect 6 1 8 0;
