#N canvas 194 217 801 456 12;
#X floatatom 61 358 5 0 0 3 num-unique-values - - 0;
#N canvas 208 233 803 468 init 0;
#X obj 85 145 t f b;
#X obj 85 169 until;
#X obj 85 223 f;
#X obj 115 227 + 1;
#X msg 103 193 0;
#X obj 85 257 t b f;
#X obj 485 27 loadbang;
#X obj 485 51 t b b;
#X obj 455 51 bng 15 250 50 0 empty empty empty 17 7 0 10 #fcfcfc #000000 #000000;
#X obj 485 145 t f b;
#X obj 485 169 until;
#X obj 485 223 f;
#X obj 515 227 + 1;
#X msg 503 193 0;
#X obj 485 257 t b f;
#X obj 485 121 array size array-unique-help-2;
#X msg 574 262 seed 2567;
#X obj 485 395 array set array-unique-help-2;
#X obj 85 399 array set array-unique-help;
#X obj 85 121 array size array-unique-help;
#X obj 485 321 random 5;
#X obj 85 321 random 5;
#X obj 85 345 / 5;
#X obj 485 345 / 5;
#X connect 0 0 1 0;
#X connect 0 1 4 0;
#X connect 1 0 2 0;
#X connect 2 0 3 0;
#X connect 2 0 5 0;
#X connect 3 0 2 1;
#X connect 4 0 2 1;
#X connect 5 0 21 0;
#X connect 5 1 18 1;
#X connect 6 0 7 0;
#X connect 7 0 15 0;
#X connect 7 0 19 0;
#X connect 7 1 16 0;
#X connect 8 0 7 0;
#X connect 9 0 10 0;
#X connect 9 1 13 0;
#X connect 10 0 11 0;
#X connect 11 0 12 0;
#X connect 11 0 14 0;
#X connect 12 0 11 1;
#X connect 13 0 11 1;
#X connect 14 0 20 0;
#X connect 14 1 17 1;
#X connect 15 0 9 0;
#X connect 16 0 20 0;
#X connect 19 0 0 0;
#X connect 20 0 23 0;
#X connect 21 0 22 0;
#X connect 22 0 18 0;
#X connect 23 0 17 0;
#X restore 504 201 pd init;
#X msg 216 169 set array-unique-help-2;
#X msg 251 213 set array-unique-help;
#X text 213 139 set the array being referenced;
#X text 658 411 array-abs v0.0.0;
#X obj 61 142 bng 19 250 50 0 empty empty empty 0 -10 0 12 #fcfcfc #000000 #000000;
#X listbox 268 358 40 0 0 3 unique-set - - 0;
#X obj 504 231 array define array-unique-help 160;
#X obj 504 261 array define array-unique-help-2 120;
#X obj 61 304 array-unique array-unique-help;
#X text 58 38 upon receiving a bang \, [array-unique] searches the currently referenced array for unique values and returns the set at the 2nd outlet. The 1st outlet returns the number of unique values in the set.;
#X connect 2 0 10 0;
#X connect 3 0 10 0;
#X connect 6 0 10 0;
#X connect 10 0 0 0;
#X connect 10 1 7 0;
