#N canvas 298 217 1087 685 12;
#X obj 47 24 inlet;
#N canvas 634 433 341 309 message-parsing 0;
#X obj 39 26 inlet;
#X obj 39 50 route set;
#X obj 179 234 outlet;
#X obj 99 234 outlet;
#X obj 179 114 symbol;
#X connect 0 0 1 0;
#X connect 1 0 4 0;
#X connect 1 1 3 0;
#X connect 4 0 2 0;
#X restore 47 54 pd message-parsing;
#X obj 47 630 outlet;
#X obj 627 170 array size \$1;
#X msg 627 194 resize \$1;
#X obj 540 232 symbol \$1;
#X msg 460 272 ascend;
#X obj 47 152 f;
#X obj 47 176 mod 2;
#X obj 47 200 == 0;
#X obj 387 354 f;
#X obj 387 378 / 2;
#X obj 387 402 - 1;
#X obj 387 456 t f f;
#X obj 387 480 + 1;
#X obj 387 528 +;
#X obj 387 552 / 2;
#X obj 767 630 outlet;
#X obj 387 314 t b b;
#X msg 767 500 -1;
#X text 764 442 if the array has an odd number of points \, do not output the median index, f 39;
#X obj 47 354 f;
#X obj 47 378 / 2;
#X obj 47 78 t b b b b;
#X obj 47 224 select 0 1;
#X obj 47 402 i;
#X obj 387 426 i;
#X obj 627 222 array define \$0-array-median-data-sorted;
#X obj 540 262 array-copy \$0-array-median-data-sorted;
#X obj 460 302 array-sort \$0-array-median-data-sorted;
#X obj 47 478 array get \$0-array-median-data-sorted 0 1;
#X obj 427 480 array get \$0-array-median-data-sorted 0 1;
#X obj 387 504 array get \$0-array-median-data-sorted 0 1;
#X obj 47 426 t f f;
#X obj 118 541 list store;
#X msg 118 511 get \$1;
#X connect 0 0 1 0;
#X connect 1 0 23 0;
#X connect 1 1 3 1;
#X connect 1 1 5 1;
#X connect 3 0 4 0;
#X connect 3 0 7 1;
#X connect 3 0 10 1;
#X connect 3 0 21 1;
#X connect 4 0 27 0;
#X connect 5 0 28 0;
#X connect 6 0 29 0;
#X connect 7 0 8 0;
#X connect 8 0 9 0;
#X connect 9 0 24 0;
#X connect 10 0 11 0;
#X connect 11 0 12 0;
#X connect 12 0 26 0;
#X connect 13 0 14 0;
#X connect 13 1 31 0;
#X connect 14 0 32 0;
#X connect 15 0 16 0;
#X connect 16 0 2 0;
#X connect 18 0 10 0;
#X connect 18 1 19 0;
#X connect 19 0 17 0;
#X connect 21 0 22 0;
#X connect 22 0 25 0;
#X connect 23 0 7 0;
#X connect 23 1 6 0;
#X connect 23 2 5 0;
#X connect 23 3 3 0;
#X connect 24 0 21 0;
#X connect 24 1 18 0;
#X connect 25 0 33 0;
#X connect 26 0 13 0;
#X connect 29 0 34 1;
#X connect 30 0 2 0;
#X connect 31 0 15 1;
#X connect 32 0 15 0;
#X connect 33 0 30 0;
#X connect 33 1 35 0;
#X connect 34 0 17 0;
#X connect 35 0 34 0;
