#N canvas 364 353 456 578 12;
#X obj 50 32 inlet;
#N canvas 634 433 341 309 message-parsing 0;
#X obj 39 26 inlet;
#X obj 39 50 route set;
#X obj 179 234 outlet;
#X obj 99 234 outlet;
#X obj 179 114 symbol;
#X connect 0 0 1 0;
#X connect 1 0 4 0;
#X connect 1 1 3 0;
#X connect 4 0 2 0;
#X restore 50 62 pd message-parsing;
#X obj 50 516 array set \$1;
#X obj 50 156 t b f;
#X obj 264 340 pack f s;
#X obj 338 230 loadbang;
#X obj 338 254 symbol \$1;
#X msg 264 364 \; \$2 resize \$1 \;;
#X obj 50 448 t l b;
#X msg 90 476 0;
#X obj 50 86 t b l;
#X obj 50 132 array size \$1;
#X obj 50 234 array get \$1;
#X obj 100 186 +;
#X obj 118 156 list length;
#X obj 264 310 f;
#X obj 270 32 inlet;
#X obj 50 418 list store;
#X obj 73 302 f;
#X obj 73 326 list append;
#X obj 50 258 t b b l;
#X obj 73 350 list prepend insert;
#X obj 73 374 list trim;
#X connect 0 0 1 0;
#X connect 1 0 10 0;
#X connect 1 1 2 2;
#X connect 1 1 4 1;
#X connect 1 1 11 1;
#X connect 1 1 12 2;
#X connect 3 0 12 0;
#X connect 3 1 13 0;
#X connect 4 0 7 0;
#X connect 5 0 6 0;
#X connect 6 0 4 1;
#X connect 8 0 2 0;
#X connect 8 1 9 0;
#X connect 8 1 15 0;
#X connect 9 0 2 1;
#X connect 10 0 11 0;
#X connect 10 1 14 0;
#X connect 10 1 19 1;
#X connect 11 0 3 0;
#X connect 12 0 20 0;
#X connect 13 0 15 1;
#X connect 14 0 13 1;
#X connect 15 0 4 0;
#X connect 16 0 18 1;
#X connect 17 0 8 0;
#X connect 18 0 19 0;
#X connect 19 0 21 0;
#X connect 20 0 17 0;
#X connect 20 1 18 0;
#X connect 20 2 17 1;
#X connect 21 0 22 0;
#X connect 22 0 17 0;
