#N canvas 254 147 441 733 12;
#X obj 50 32 inlet;
#N canvas 634 433 365 416 message-parsing 0;
#X obj 39 26 inlet;
#X obj 39 50 route set;
#X obj 179 354 outlet;
#X obj 99 354 outlet;
#X obj 179 234 symbol;
#X obj 99 90 t l l;
#X obj 189 130 list length;
#X obj 99 184 list prepend;
#X obj 99 208 route 0 1;
#X obj 189 154 > 1;
#X obj 99 262 pack f 1;
#X connect 0 0 1 0;
#X connect 1 0 4 0;
#X connect 1 1 5 0;
#X connect 4 0 2 0;
#X connect 5 0 7 0;
#X connect 5 1 6 0;
#X connect 6 0 9 0;
#X connect 7 0 8 0;
#X connect 8 0 10 0;
#X connect 8 1 3 0;
#X connect 9 0 7 1;
#X connect 10 0 3 0;
#X restore 50 62 pd message-parsing;
#X obj 117 676 array set \$1;
#X obj 50 326 t b f;
#X obj 264 510 pack f s;
#X obj 338 400 loadbang;
#X obj 338 424 symbol \$1;
#X msg 264 534 \; \$2 resize \$1 \;;
#X obj 50 578 t l b;
#X msg 157 636 0;
#X obj 50 86 t b l;
#X obj 50 132 array size \$1;
#X obj 50 404 array get \$1;
#X obj 264 480 f;
#X obj 50 548 list store;
#X obj 50 428 t b b l;
#X obj 100 356 -;
#X obj 140 230 outlet;
#X obj 267 87 print before;
#X obj 297 135 print after;
#X obj 118 166 unpack f f;
#X obj 73 466 list store;
#X obj 73 490 list prepend delete;
#X obj 73 514 list trim;
#X obj 230 607 print listStoreEmpty;
#X obj 50 156 t f f;
#X obj 50 230 spigot;
#X obj 90 200 >;
#X obj 140 200 select 0;
#X obj 186 9 print processed-mess;
#X obj 50 602 route bang;
#X obj 240 676 outlet;
#X text 301 675 no data left;
#X text 201 229 index out of bounds;
#X connect 0 0 1 0;
#X connect 1 0 10 0;
#X connect 1 0 29 0;
#X connect 1 1 2 2;
#X connect 1 1 4 1;
#X connect 1 1 11 1;
#X connect 1 1 12 2;
#X connect 3 0 12 0;
#X connect 3 1 16 0;
#X connect 4 0 7 0;
#X connect 5 0 6 0;
#X connect 6 0 4 1;
#X connect 8 0 19 0;
#X connect 8 0 30 0;
#X connect 8 1 9 0;
#X connect 8 1 13 0;
#X connect 9 0 2 1;
#X connect 10 0 11 0;
#X connect 10 1 20 0;
#X connect 10 1 21 1;
#X connect 11 0 25 0;
#X connect 12 0 15 0;
#X connect 13 0 4 0;
#X connect 14 0 8 0;
#X connect 14 1 24 0;
#X connect 14 1 31 0;
#X connect 15 0 14 0;
#X connect 15 1 21 0;
#X connect 15 2 14 1;
#X connect 15 2 18 0;
#X connect 16 0 13 1;
#X connect 20 0 27 1;
#X connect 20 1 16 1;
#X connect 21 0 22 0;
#X connect 22 0 23 0;
#X connect 23 0 14 0;
#X connect 25 0 26 0;
#X connect 25 1 27 0;
#X connect 26 0 3 0;
#X connect 27 0 28 0;
#X connect 27 0 26 1;
#X connect 28 0 17 0;
#X connect 30 0 31 0;
#X connect 30 1 2 0;
