#N canvas 152 309 475 483 12;
#X obj 59 28 inlet;
#X obj 59 128 array size \$1;
#X obj 59 182 until;
#X obj 59 236 f;
#X obj 89 240 + 1;
#X msg 77 206 0;
#X obj 59 270 t f f;
#N canvas 654 192 382 309 message-parsing 0;
#X obj 39 26 inlet;
#X obj 289 240 outlet;
#X obj 159 240 outlet;
#X obj 289 184 symbol;
#X obj 39 240 outlet;
#X obj 39 50 route set;
#X obj 99 130 t b a;
#X connect 0 0 5 0;
#X connect 3 0 1 0;
#X connect 5 0 3 0;
#X connect 5 1 6 0;
#X connect 6 0 4 0;
#X connect 6 1 2 0;
#X restore 59 58 pd message-parsing;
#X obj 59 432 array set \$1;
#N canvas 770 114 423 413 blackman 0;
#X obj 44 27 inlet;
#X obj 44 361 outlet;
#X obj 102 116 f 3.14159;
#X obj 284 27 inlet;
#X msg 44 125 0.42;
#X obj 44 189 -;
#X obj 44 293 +;
#X obj 102 140 * 2;
#X obj 102 164 *;
#X obj 102 188 /;
#X obj 102 212 cos;
#X obj 102 236 * 0.5;
#X obj 44 51 t b b f;
#X obj 262 116 f 3.14159;
#X obj 262 164 *;
#X obj 262 188 /;
#X obj 262 212 cos;
#X obj 262 140 * 4;
#X obj 262 236 * 0.08;
#X connect 0 0 12 0;
#X connect 2 0 7 0;
#X connect 3 0 9 1;
#X connect 3 0 15 1;
#X connect 4 0 5 0;
#X connect 5 0 6 0;
#X connect 6 0 1 0;
#X connect 7 0 8 0;
#X connect 8 0 9 0;
#X connect 9 0 10 0;
#X connect 10 0 11 0;
#X connect 11 0 5 1;
#X connect 12 0 4 0;
#X connect 12 1 2 0;
#X connect 12 1 13 0;
#X connect 12 2 8 1;
#X connect 12 2 14 1;
#X connect 13 0 17 0;
#X connect 14 0 15 0;
#X connect 15 0 16 0;
#X connect 16 0 18 0;
#X connect 17 0 14 0;
#X connect 18 0 6 1;
#X restore 59 388 pd blackman;
#X obj 59 294 list prepend;
#X obj 59 358 route blackman cosine hamming hann;
#N canvas 747 126 379 327 cosine 0;
#X obj 44 27 inlet;
#X obj 44 271 outlet;
#X obj 254 27 inlet;
#X obj 44 71 * 3.14159;
#X obj 44 135 /;
#X obj 44 159 sin;
#X connect 0 0 3 0;
#X connect 2 0 4 1;
#X connect 3 0 4 0;
#X connect 4 0 5 0;
#X connect 5 0 1 0;
#X restore 159 388 pd cosine;
#N canvas 770 114 377 352 hamming 0;
#X obj 44 27 inlet;
#X obj 44 301 outlet;
#X obj 264 27 inlet;
#X obj 44 71 t b f;
#X msg 44 95 0.5;
#X obj 44 249 -;
#X obj 114 119 * 3.14159;
#X obj 114 143 * 2;
#X obj 114 167 /;
#X obj 114 191 cos;
#X obj 114 215 * 0.46;
#X connect 0 0 3 0;
#X connect 2 0 8 1;
#X connect 3 0 4 0;
#X connect 3 1 6 0;
#X connect 4 0 5 0;
#X connect 5 0 1 0;
#X connect 6 0 7 0;
#X connect 7 0 8 0;
#X connect 8 0 9 0;
#X connect 9 0 10 0;
#X connect 10 0 5 1;
#X restore 259 388 pd hamming;
#N canvas 770 114 361 391 hann 0;
#X obj 44 27 inlet;
#X obj 44 321 outlet;
#X obj 254 27 inlet;
#X obj 44 71 t b f;
#X obj 44 249 -;
#X obj 114 119 * 3.14159;
#X obj 114 143 * 2;
#X obj 114 167 /;
#X obj 114 191 cos;
#X msg 44 95 1;
#X obj 44 273 * 0.5;
#X connect 0 0 3 0;
#X connect 2 0 7 1;
#X connect 3 0 9 0;
#X connect 3 1 5 0;
#X connect 4 0 10 0;
#X connect 5 0 6 0;
#X connect 6 0 7 0;
#X connect 7 0 8 0;
#X connect 8 0 4 1;
#X connect 9 0 4 0;
#X connect 10 0 1 0;
#X restore 359 388 pd hann;
#X obj 59 158 t f b f;
#X obj 59 318 list trim;
#X connect 0 0 7 0;
#X connect 1 0 15 0;
#X connect 2 0 3 0;
#X connect 3 0 4 0;
#X connect 3 0 6 0;
#X connect 4 0 3 1;
#X connect 5 0 3 1;
#X connect 6 0 10 0;
#X connect 6 1 8 1;
#X connect 7 0 1 0;
#X connect 7 1 10 1;
#X connect 7 2 1 1;
#X connect 7 2 8 2;
#X connect 9 0 8 0;
#X connect 10 0 16 0;
#X connect 11 0 9 0;
#X connect 11 1 12 0;
#X connect 11 2 13 0;
#X connect 11 3 14 0;
#X connect 12 0 8 0;
#X connect 13 0 8 0;
#X connect 14 0 8 0;
#X connect 15 0 2 0;
#X connect 15 1 5 0;
#X connect 15 2 9 1;
#X connect 15 2 12 1;
#X connect 15 2 13 1;
#X connect 15 2 14 1;
#X connect 16 0 11 0;
