#N canvas 235 190 288 526 12;
#X obj 47 44 inlet;
#X obj 47 144 array size \$1;
#X obj 47 198 until;
#X obj 47 252 f;
#X obj 77 256 + 1;
#X msg 65 222 0;
#X obj 47 326 array get \$1 0 1;
#N canvas 634 433 341 309 message-parsing 0;
#X obj 39 26 inlet;
#X obj 39 50 route set;
#X obj 179 234 outlet;
#X obj 99 234 outlet;
#X obj 179 114 symbol;
#X connect 0 0 1 0;
#X connect 1 0 4 0;
#X connect 1 1 3 0;
#X connect 4 0 2 0;
#X restore 47 74 pd message-parsing;
#X obj 47 480 outlet;
#X obj 47 98 t b b;
#X obj 47 410 *;
#X obj 47 174 t f b f;
#X obj 192 285 t b f;
#X msg 192 309 1;
#X obj 192 333 /;
#X obj 47 370 pow;
#X msg 95 374 1;
#X obj 87 414 f;
#X connect 0 0 7 0;
#X connect 1 0 11 0;
#X connect 2 0 3 0;
#X connect 3 0 4 0;
#X connect 3 0 6 0;
#X connect 4 0 3 1;
#X connect 5 0 3 1;
#X connect 6 0 15 0;
#X connect 7 0 9 0;
#X connect 7 1 1 1;
#X connect 7 1 6 2;
#X connect 9 0 1 0;
#X connect 9 1 16 0;
#X connect 10 0 17 0;
#X connect 10 0 8 0;
#X connect 11 0 2 0;
#X connect 11 1 5 0;
#X connect 11 2 12 0;
#X connect 12 0 13 0;
#X connect 12 1 14 1;
#X connect 13 0 14 0;
#X connect 14 0 15 1;
#X connect 15 0 10 0;
#X connect 16 0 10 1;
#X connect 17 0 10 1;
