#N canvas 1077 398 402 480 12;
#X obj 47 44 inlet;
#N canvas 634 433 341 309 message-parsing 0;
#X obj 39 26 inlet;
#X obj 39 50 route set;
#X obj 179 234 outlet;
#X obj 99 234 outlet;
#X obj 179 114 symbol;
#X connect 0 0 1 0;
#X connect 1 0 4 0;
#X connect 1 1 3 0;
#X connect 4 0 2 0;
#X restore 47 74 pd message-parsing;
#X obj 47 408 array set \$1;
#X obj 47 316 array get;
#X obj 47 340 t l b;
#X obj 86 152 unpack s f f f;
#X obj 47 98 t b a;
#X obj 87 378 f;
#X obj 47 232 f;
#X connect 0 0 1 0;
#X connect 1 0 6 0;
#X connect 1 1 2 2;
#X connect 3 0 4 0;
#X connect 4 0 2 0;
#X connect 4 1 7 0;
#X connect 5 0 3 2;
#X connect 5 1 8 1;
#X connect 5 2 3 1;
#X connect 5 3 7 1;
#X connect 6 0 8 0;
#X connect 6 1 5 0;
#X connect 7 0 2 1;
#X connect 8 0 3 0;
