#N canvas 194 217 730 405 12;
#X text 129 203 set the array being referenced;
#X text 583 356 array-abs v0.0.0;
#X obj 37 177 bng 19 250 50 0 empty empty empty 0 -10 0 12 #fcfcfc #000000 #000000;
#X obj 37 347 array-ftom array-ftom-help;
#X msg 132 233 set array-ftom-help-2;
#X msg 167 277 set array-ftom-help;
#N canvas 208 233 803 423 init 0;
#X obj 85 145 t f b;
#X obj 85 169 until;
#X obj 85 223 f;
#X obj 115 227 + 1;
#X msg 103 193 0;
#X obj 85 257 t b f;
#X obj 485 27 loadbang;
#X obj 485 51 t b b;
#X obj 455 51 bng 15 250 50 0 empty empty empty 17 7 0 10 #fcfcfc #000000 #000000;
#X obj 485 145 t f b;
#X obj 485 169 until;
#X obj 485 223 f;
#X obj 515 227 + 1;
#X msg 503 193 0;
#X obj 485 257 t b f;
#X msg 574 262 seed 2567;
#X obj 485 121 array size array-ftom-help-2;
#X obj 85 121 array size array-ftom-help;
#X obj 485 369 array set array-ftom-help-2;
#X obj 85 369 array set array-ftom-help;
#X obj 485 321 random 4000;
#X obj 485 345 + 27.5;
#X obj 85 321 random 4000;
#X obj 85 345 + 27.5;
#X connect 0 0 1 0;
#X connect 0 1 4 0;
#X connect 1 0 2 0;
#X connect 2 0 3 0;
#X connect 2 0 5 0;
#X connect 3 0 2 1;
#X connect 4 0 2 1;
#X connect 5 0 22 0;
#X connect 5 1 19 1;
#X connect 6 0 7 0;
#X connect 7 0 16 0;
#X connect 7 0 17 0;
#X connect 7 1 15 0;
#X connect 8 0 7 0;
#X connect 9 0 10 0;
#X connect 9 1 13 0;
#X connect 10 0 11 0;
#X connect 11 0 12 0;
#X connect 11 0 14 0;
#X connect 12 0 11 1;
#X connect 13 0 11 1;
#X connect 14 0 20 0;
#X connect 14 1 18 1;
#X connect 15 0 20 0;
#X connect 16 0 9 0;
#X connect 17 0 0 0;
#X connect 20 0 21 0;
#X connect 21 0 18 0;
#X connect 22 0 23 0;
#X connect 23 0 19 0;
#X restore 427 83 pd init;
#X text 475 215 set array bounds to MIDI or frequency range, f 23;
#X obj 427 223 hradio 19 1 1 2 empty empty empty 0 -10 0 12 #fcfcfc #000000 #000000 1;
#N canvas 394 421 813 425 set-range 0;
#X obj 37 37 inlet;
#X obj 37 61 select 0 1;
#X obj 37 125 t b b;
#X obj 37 209 array size array-ftom-help-2;
#X obj 37 233 - 1;
#X obj 87 183 - 1;
#X obj 87 159 array size array-ftom-help;
#X obj 417 125 t b b;
#X obj 417 209 array size array-ftom-help-2;
#X obj 417 233 - 1;
#X obj 467 183 - 1;
#X obj 467 159 array size array-ftom-help;
#X msg 87 295 \; array-ftom-help bounds 0 108 \$1 21 \;;
#X msg 37 345 \; array-ftom-help-2 bounds 0 108 \$1 21 \;;
#X msg 417 345 \; array-ftom-help-2 bounds 0 4186.01 \$1 27.5 \;;
#X msg 467 295 \; array-ftom-help bounds 0 4186.01 \$1 27.5 \;;
#X connect 0 0 1 0;
#X connect 1 0 2 0;
#X connect 1 1 7 0;
#X connect 2 0 3 0;
#X connect 2 1 6 0;
#X connect 3 0 4 0;
#X connect 4 0 13 0;
#X connect 5 0 12 0;
#X connect 6 0 5 0;
#X connect 7 0 8 0;
#X connect 7 1 11 0;
#X connect 8 0 9 0;
#X connect 9 0 14 0;
#X connect 10 0 15 0;
#X connect 11 0 10 0;
#X restore 427 257 pd set-range;
#X obj 427 113 array define -k array-ftom-help 16;
#A 0 70.5 3298.5 3064.5 3091.5 2747.5 2073.5 1229.5 2992.5 1146.5 3882.5 3569.5 2498.5 2468.5 315.5 1745.5 87.5;
#X obj 427 143 array define -k array-ftom-help-2 12;
#A 0 3462.5 3052.5 2848.5 1617.5 3182.5 2018.5 3691.5 2009.5 1002.5 75.5 2952.5 1277.5;
#X text 34 31 upon receiving a bang \, [array-ftom] converts all values in the currently referenced array from frequency to MIDI units., f 49;
#X connect 2 0 3 0;
#X connect 4 0 3 0;
#X connect 5 0 3 0;
#X connect 8 0 9 0;
