#N canvas 426 254 570 549 12;
#X obj 47 44 inlet;
#N canvas 634 433 392 309 message-parsing 0;
#X obj 39 26 inlet;
#X obj 214 234 outlet;
#X obj 134 234 outlet;
#X obj 214 114 symbol;
#X obj 39 50 route set seed;
#X obj 294 234 outlet;
#X connect 0 0 4 0;
#X connect 3 0 1 0;
#X connect 4 0 3 0;
#X connect 4 1 5 0;
#X connect 4 2 2 0;
#X restore 47 74 pd message-parsing;
#N canvas 884 132 477 632 urn 0;
#X obj 40 21 inlet;
#X obj 360 21 inlet;
#X obj 40 563 outlet;
#X obj 169 563 outlet;
#X msg 364 229 seed \$1;
#N canvas 235 122 465 452 init 0;
#X obj 83 190 t f b;
#X obj 83 214 until;
#X obj 83 268 f;
#X obj 113 272 + 1;
#X msg 113 238 0;
#X obj 83 336 list store;
#X obj 60 112 t b b b;
#X msg 83 302 append \$1;
#X obj 83 360 outlet;
#X obj 60 28 inlet;
#X obj 250 28 inlet;
#X obj 250 52 t b f;
#X obj 83 166 f;
#X connect 0 0 1 0;
#X connect 0 1 4 0;
#X connect 1 0 2 0;
#X connect 2 0 3 0;
#X connect 2 0 7 0;
#X connect 3 0 2 1;
#X connect 4 0 2 1;
#X connect 5 0 8 0;
#X connect 6 0 5 0;
#X connect 6 1 12 0;
#X connect 6 2 5 1;
#X connect 7 0 5 0;
#X connect 9 0 6 0;
#X connect 10 0 11 0;
#X connect 11 0 6 0;
#X connect 11 1 12 1;
#X connect 12 0 0 0;
#X restore 272 183 pd init;
#X msg 169 394 delete \$1;
#X obj 40 513 list store;
#X msg 86 416 get \$1;
#X obj 40 45 route bang clear seed;
#X obj 100 133 t f b;
#X obj 169 478 list length;
#X obj 169 424 list store;
#X obj 169 448 t l l;
#X obj 40 333 t b f f;
#X obj 272 207 t b l;
#X obj 169 502 select 0;
#X obj 40 239 route 0 1;
#X obj 40 209 list prepend 1;
#X msg 135 169 1;
#X msg 175 169 0;
#X obj 360 45 t b f f;
#X obj 40 293 random;
#X obj 100 109 f;
#X floatatom 364 253 10 0 0 0 - - - 0;
#X connect 0 0 9 0;
#X connect 1 0 21 0;
#X connect 4 0 22 0;
#X connect 5 0 15 0;
#X connect 6 0 12 0;
#X connect 7 0 2 0;
#X connect 8 0 7 0;
#X connect 9 0 18 0;
#X connect 9 1 23 0;
#X connect 9 2 4 0;
#X connect 9 2 24 0;
#X connect 10 0 22 1;
#X connect 10 1 5 0;
#X connect 10 1 19 0;
#X connect 11 0 16 0;
#X connect 12 0 13 0;
#X connect 13 0 11 0;
#X connect 13 1 7 1;
#X connect 14 0 12 0;
#X connect 14 1 6 0;
#X connect 14 2 8 0;
#X connect 15 0 12 0;
#X connect 15 1 12 1;
#X connect 16 0 20 0;
#X connect 16 1 22 1;
#X connect 17 0 3 0;
#X connect 17 1 22 0;
#X connect 18 0 17 0;
#X connect 19 0 18 1;
#X connect 20 0 18 1;
#X connect 21 0 23 0;
#X connect 21 1 23 1;
#X connect 21 2 5 1;
#X connect 22 0 14 0;
#X connect 23 0 10 0;
#X restore 257 380 pd urn;
#X obj 47 144 array size \$1;
#X obj 257 350 until;
#X obj 257 326 t f f;
#X obj 257 444 list store;
#X msg 257 404 append \$1;
#X obj 177 144 array get \$1;
#X obj 47 478 array set \$1 0 1;
#X obj 47 438 list store;
#X obj 47 168 t f b;
#X obj 47 192 until;
#X obj 47 246 f;
#X obj 77 250 + 1;
#X msg 65 216 0;
#X obj 47 280 t f f;
#X msg 47 324 get \$1;
#X obj 47 358 list store;
#X msg 47 402 get \$1;
#X obj 47 98 t b b b;
#X obj 257 302 array size \$1;
#X obj 217 236 t b b b;
#X msg 457 240 seed \$1;
#N canvas 764 170 213 367 init 0;
#X obj 39 287 outlet;
#X msg 39 71 args;
#X obj 39 95 pdcontrol;
#X obj 39 119 list length;
#X obj 99 183 t b;
#X obj 99 213 f \$0;
#X obj 39 31 loadbang;
#X obj 39 143 select 2;
#X obj 39 213 f \$2;
#X connect 1 0 2 0;
#X connect 2 0 3 0;
#X connect 3 0 7 0;
#X connect 4 0 5 0;
#X connect 5 0 0 0;
#X connect 6 0 1 0;
#X connect 7 0 8 0;
#X connect 7 1 4 0;
#X connect 8 0 0 0;
#X restore 457 120 pd init;
#X connect 0 0 1 0;
#X connect 1 0 20 0;
#X connect 1 1 3 1;
#X connect 1 1 8 2;
#X connect 1 1 9 2;
#X connect 1 1 21 1;
#X connect 1 2 23 0;
#X connect 2 0 7 0;
#X connect 3 0 11 0;
#X connect 4 0 2 0;
#X connect 5 0 4 0;
#X connect 5 1 2 1;
#X connect 6 0 18 1;
#X connect 7 0 6 0;
#X connect 8 0 10 1;
#X connect 10 0 9 0;
#X connect 11 0 12 0;
#X connect 11 1 15 0;
#X connect 12 0 13 0;
#X connect 13 0 14 0;
#X connect 13 0 16 0;
#X connect 14 0 13 1;
#X connect 15 0 13 1;
#X connect 16 0 17 0;
#X connect 16 1 9 1;
#X connect 17 0 18 0;
#X connect 18 0 19 0;
#X connect 19 0 10 0;
#X connect 20 0 3 0;
#X connect 20 1 8 0;
#X connect 20 2 22 0;
#X connect 21 0 5 0;
#X connect 22 0 6 0;
#X connect 22 1 21 0;
#X connect 22 2 6 1;
#X connect 23 0 2 0;
#X connect 24 0 23 0;
