#N canvas 368 72 563 482 12;
#X obj 47 32 inlet;
#N canvas 715 414 375 340 message-parsing 0;
#X obj 39 26 inlet;
#X obj 179 234 outlet;
#X obj 99 234 outlet;
#X obj 179 114 symbol;
#X obj 39 50 route set;
#X connect 0 0 4 0;
#X connect 3 0 1 0;
#X connect 4 0 3 0;
#X connect 4 1 2 0;
#X restore 47 62 pd message-parsing;
#X obj 87 206 until;
#X obj 87 260 f;
#X obj 117 264 + 1;
#X msg 105 230 0;
#X obj 47 427 outlet;
#X obj 87 300 array get \$0-array-mink-sorted 0 1;
#X obj 47 391 list store;
#X msg 87 334 append \$1;
#X obj 177 246 array-sort \$0-array-mink-sorted;
#X msg 177 216 ascend;
#X obj 247 192 symbol \$1;
#X obj 247 216 array-copy \$0-array-mink-sorted;
#X obj 277 95 array define \$0-array-mink-sorted;
#X obj 47 86 t b f b b b b;
#X connect 0 0 1 0;
#X connect 1 0 15 0;
#X connect 1 1 12 1;
#X connect 2 0 3 0;
#X connect 3 0 4 0;
#X connect 3 0 7 0;
#X connect 4 0 3 1;
#X connect 5 0 3 1;
#X connect 7 0 9 0;
#X connect 8 0 6 0;
#X connect 9 0 8 0;
#X connect 11 0 10 0;
#X connect 12 0 13 0;
#X connect 15 0 8 0;
#X connect 15 1 2 0;
#X connect 15 2 5 0;
#X connect 15 3 8 1;
#X connect 15 4 11 0;
#X connect 15 5 12 0;
