#N canvas 194 217 779 456 12;
#X floatatom 61 358 5 0 0 3 occurrences - - 0;
#N canvas 397 140 759 278 init 0;
#X obj 408 32 loadbang;
#X obj 408 56 t b b;
#X obj 378 56 bng 15 250 50 0 empty empty empty 17 7 0 10 #fcfcfc #000000 #000000;
#X obj 440 126 array size array-between-help-2;
#X obj 40 126 array size array-between-help;
#X obj 440 150 - 1;
#X obj 40 150 - 1;
#X msg 40 174 \; array-between-help bounds 0 9 \$1 0 \;;
#X msg 440 174 \; array-between-help-2 bounds 0 9 \$1 0 \;;
#X connect 0 0 1 0;
#X connect 1 0 4 0;
#X connect 1 1 3 0;
#X connect 2 0 1 0;
#X connect 3 0 5 0;
#X connect 4 0 6 0;
#X connect 5 0 8 0;
#X connect 6 0 7 0;
#X restore 454 259 pd init;
#X msg 274 167 set array-between-help-2;
#X msg 309 211 set array-between-help;
#X text 271 137 set the array being referenced;
#X obj 61 304 array-between array-between-help;
#X text 624 409 array-abs v0.0.0;
#X listbox 291 358 40 0 0 3 indices - - 0;
#X obj 454 289 array define -k array-between-help 16;
#A 0 3 9 4 8 8 7 8 8 2 8 1 4 1 0 5 5;
#X obj 454 319 array define -k array-between-help-2 12;
#A 0 8 7 7 3 7 4 9 4 2 0 7 3;
#X text 58 38 [array-between] receives a 2-element list of boundaries at its 1st inlet and searches for values in the currently referenced array that fall within it (non-inclusively). it returns the number of between values from its 1st outlet \, and a list of their indices from the 2nd outlet.;
#X msg 61 156 3 7;
#X msg 91 186 1 9;
#X text 108 156 bounds;
#X connect 2 0 5 0;
#X connect 3 0 5 0;
#X connect 5 0 0 0;
#X connect 5 1 7 0;
#X connect 11 0 5 0;
#X connect 12 0 5 0;
