#N canvas 306 167 608 817 12;
#X obj 47 44 inlet;
#X obj 47 767 outlet;
#X obj 47 112 array size \$1;
#X obj 67 176 until;
#X obj 67 230 f;
#X obj 97 234 + 1;
#X msg 85 200 0;
#X obj 317 767 outlet;
#X obj 67 294 array get \$1 0 1;
#N canvas 634 433 287 313 message-parsing 0;
#X obj 39 26 inlet;
#X obj 39 50 route set;
#X obj 179 234 outlet;
#X obj 99 234 outlet;
#X obj 179 114 symbol;
#X connect 0 0 1 0;
#X connect 1 0 4 0;
#X connect 1 1 3 0;
#X connect 4 0 2 0;
#X restore 47 74 pd message-parsing;
#X obj 67 508 ==;
#X obj 67 532 select 1;
#X obj 218 261 array define \$0-array-mode-occurrences;
#X obj 47 142 t b b f b f;
#X obj 67 661 array set \$0-array-mode-occurrences;
#X obj 67 607 array get \$0-array-mode-occurrences 0 1;
#X obj 67 556 f;
#X obj 67 631 + 1;
#X obj 47 697 array max \$0-array-mode-occurrences;
#X obj 317 697 array get \$0-array-mode-occurrences;
#X obj 47 737 array get \$1 0 1;
#X obj 67 376 until;
#X obj 67 430 f;
#X obj 97 434 + 1;
#X msg 85 400 0;
#X obj 67 318 t b b f;
#X obj 67 474 array get \$1 0 1;
#X obj 67 264 t f f;
#X obj 67 342 f;
#X text 100 556 i;
#X text 103 507 thisVal;
#X text 128 428 j;
#X obj 67 580 t f f;
#X msg 218 231 resize \$1 \, const 0;
#X connect 0 0 9 0;
#X connect 2 0 13 0;
#X connect 3 0 4 0;
#X connect 4 0 5 0;
#X connect 4 0 27 0;
#X connect 5 0 4 1;
#X connect 6 0 4 1;
#X connect 8 0 25 0;
#X connect 9 0 2 0;
#X connect 9 1 2 1;
#X connect 9 1 8 2;
#X connect 9 1 20 2;
#X connect 9 1 26 2;
#X connect 10 0 11 0;
#X connect 11 0 16 0;
#X connect 13 0 18 0;
#X connect 13 1 19 0;
#X connect 13 2 3 0;
#X connect 13 3 6 0;
#X connect 13 4 33 0;
#X connect 13 4 28 1;
#X connect 15 0 17 0;
#X connect 16 0 32 0;
#X connect 17 0 14 0;
#X connect 18 1 20 0;
#X connect 19 0 7 0;
#X connect 20 0 1 0;
#X connect 21 0 22 0;
#X connect 22 0 23 0;
#X connect 22 0 26 0;
#X connect 23 0 22 1;
#X connect 24 0 22 1;
#X connect 25 0 28 0;
#X connect 25 1 24 0;
#X connect 25 2 10 1;
#X connect 26 0 10 0;
#X connect 27 0 8 0;
#X connect 27 1 16 1;
#X connect 28 0 21 0;
#X connect 32 0 15 0;
#X connect 32 1 14 1;
#X connect 33 0 12 0;
