#N canvas 194 217 605 410 12;
#X floatatom 51 318 10 0 0 3 standard-deviation - - 0;
#N canvas 390 108 787 464 init 0;
#X obj 85 145 t f b;
#X obj 85 169 until;
#X obj 85 223 f;
#X obj 115 227 + 1;
#X msg 103 193 0;
#X obj 85 257 t b f;
#X obj 85 321 random 1000;
#X obj 485 27 loadbang;
#X obj 485 51 t b b;
#X obj 455 51 bng 15 250 50 0 empty empty empty 17 7 0 10 #fcfcfc #000000 #000000;
#X obj 485 145 t f b;
#X obj 485 169 until;
#X obj 485 223 f;
#X obj 515 227 + 1;
#X msg 503 193 0;
#X obj 485 257 t b f;
#X obj 485 121 array size array-std-help-2;
#X msg 574 262 seed 2567;
#X obj 485 395 array set array-std-help-2;
#X obj 85 399 array set array-std-help;
#X obj 85 121 array size array-std-help;
#X obj 85 345 / 500;
#X obj 85 369 - 1;
#X obj 485 321 random 1000;
#X obj 485 345 / 2000;
#X obj 485 369 - 0.25;
#X connect 0 0 1 0;
#X connect 0 1 4 0;
#X connect 1 0 2 0;
#X connect 2 0 3 0;
#X connect 2 0 5 0;
#X connect 3 0 2 1;
#X connect 4 0 2 1;
#X connect 5 0 6 0;
#X connect 5 1 19 1;
#X connect 6 0 21 0;
#X connect 7 0 8 0;
#X connect 8 0 16 0;
#X connect 8 0 20 0;
#X connect 8 1 17 0;
#X connect 9 0 8 0;
#X connect 10 0 11 0;
#X connect 10 1 14 0;
#X connect 11 0 12 0;
#X connect 12 0 13 0;
#X connect 12 0 15 0;
#X connect 13 0 12 1;
#X connect 14 0 12 1;
#X connect 15 0 23 0;
#X connect 15 1 18 1;
#X connect 16 0 10 0;
#X connect 17 0 23 0;
#X connect 20 0 0 0;
#X connect 21 0 22 0;
#X connect 22 0 19 0;
#X connect 23 0 24 0;
#X connect 24 0 25 0;
#X connect 25 0 18 0;
#X restore 324 249 pd init;
#X msg 204 137 set array-std-help-2;
#X msg 239 181 set array-std-help;
#X text 201 107 set the array being referenced;
#X obj 324 279 array define array-std-help 16;
#X obj 324 309 array define array-std-help-2 12;
#X obj 51 264 array-std array-std-help;
#X obj 51 102 bng 19 250 50 0 empty empty empty 0 -10 0 12 #fcfcfc #000000 #000000;
#X text 48 38 upon receiving a bang \, [array-std] calculates the standard deviation of the currently referenced array.;
#X text 464 369 array-abs v0.0.1;
#X connect 2 0 7 0;
#X connect 3 0 7 0;
#X connect 7 0 0 0;
#X connect 8 0 7 0;
