#N canvas 194 217 741 405 12;
#X text 129 173 set the array being referenced;
#X text 583 356 array-abs v0.0.0;
#X obj 37 147 bng 19 250 50 0 empty empty empty 0 -10 0 12 #fcfcfc #000000 #000000;
#X obj 427 113 array define -k array-rmstodb-help 16;
#A 0 0.73 0.63 0.2 0.47 0.73 0.41 0.91 0.18 0.3 0.72 0.53 0.83 0.36 0.74 0.59 0.04;
#X obj 427 143 array define -k array-rmstodb-help-2 12;
#A 0 0.86 0.76 0.71 0.4 0.79 0.5 0.92 0.5 0.24 0.01 0.73 0.31;
#X obj 37 317 array-rmstodb array-rmstodb-help;
#X msg 132 203 set array-rmstodb-help-2;
#X msg 167 247 set array-rmstodb-help;
#N canvas 411 307 803 423 init 0;
#X obj 85 145 t f b;
#X obj 85 169 until;
#X obj 85 223 f;
#X obj 115 227 + 1;
#X msg 103 193 0;
#X obj 85 257 t b f;
#X obj 485 27 loadbang;
#X obj 485 51 t b b;
#X obj 455 51 bng 15 250 50 0 empty empty empty 17 7 0 10 #fcfcfc #000000 #000000;
#X obj 485 145 t f b;
#X obj 485 169 until;
#X obj 485 223 f;
#X obj 515 227 + 1;
#X msg 503 193 0;
#X obj 485 257 t b f;
#X msg 574 262 seed 2567;
#X obj 485 121 array size array-rmstodb-help-2;
#X obj 85 121 array size array-rmstodb-help;
#X obj 485 369 array set array-rmstodb-help-2;
#X obj 85 369 array set array-rmstodb-help;
#X obj 85 321 random 101;
#X obj 485 321 random 101;
#X obj 85 345 / 100;
#X obj 485 345 / 100;
#X connect 0 0 1 0;
#X connect 0 1 4 0;
#X connect 1 0 2 0;
#X connect 2 0 3 0;
#X connect 2 0 5 0;
#X connect 3 0 2 1;
#X connect 4 0 2 1;
#X connect 5 0 20 0;
#X connect 5 1 19 1;
#X connect 6 0 7 0;
#X connect 7 0 16 0;
#X connect 7 0 17 0;
#X connect 7 1 15 0;
#X connect 8 0 7 0;
#X connect 9 0 10 0;
#X connect 9 1 13 0;
#X connect 10 0 11 0;
#X connect 11 0 12 0;
#X connect 11 0 14 0;
#X connect 12 0 11 1;
#X connect 13 0 11 1;
#X connect 14 0 21 0;
#X connect 14 1 18 1;
#X connect 15 0 21 0;
#X connect 16 0 9 0;
#X connect 17 0 0 0;
#X connect 20 0 22 0;
#X connect 21 0 23 0;
#X connect 22 0 19 0;
#X connect 23 0 18 0;
#X restore 427 83 pd init;
#X obj 427 223 hradio 19 1 1 2 empty empty empty 0 -10 0 12 #fcfcfc #000000 #000000 1;
#N canvas 394 421 813 425 set-range 0;
#X obj 37 37 inlet;
#X obj 37 61 select 0 1;
#X obj 37 125 t b b;
#X obj 37 209 array size array-rmstodb-help-2;
#X obj 37 233 - 1;
#X obj 87 183 - 1;
#X obj 87 159 array size array-rmstodb-help;
#X obj 417 125 t b b;
#X obj 417 209 array size array-rmstodb-help-2;
#X obj 417 233 - 1;
#X obj 467 183 - 1;
#X obj 467 159 array size array-rmstodb-help;
#X msg 87 295 \; array-rmstodb-help bounds 0 100 \$1 0 \;;
#X msg 37 345 \; array-rmstodb-help-2 bounds 0 100 \$1 0 \;;
#X msg 467 295 \; array-rmstodb-help bounds 0 1 \$1 0 \;;
#X msg 417 345 \; array-rmstodb-help-2 bounds 0 1 \$1 0 \;;
#X connect 0 0 1 0;
#X connect 1 0 2 0;
#X connect 1 1 7 0;
#X connect 2 0 3 0;
#X connect 2 1 6 0;
#X connect 3 0 4 0;
#X connect 4 0 13 0;
#X connect 5 0 12 0;
#X connect 6 0 5 0;
#X connect 7 0 8 0;
#X connect 7 1 11 0;
#X connect 8 0 9 0;
#X connect 9 0 15 0;
#X connect 10 0 14 0;
#X connect 11 0 10 0;
#X restore 427 257 pd set-range;
#X text 475 215 set array bounds to dB or rms amplitude range, f 23;
#X text 34 31 upon receiving a bang \, [array-rmstodb] converts all values in the currently referenced array from rms to dB amplitude units. following the convention of Pd's built-in [rmstodb] object \, 100dB represents unity gain., f 49;
#X connect 2 0 5 0;
#X connect 6 0 5 0;
#X connect 7 0 5 0;
#X connect 9 0 10 0;
