#N canvas 196 309 277 446 12;
#X obj 59 28 inlet;
#X obj 59 128 array size \$1;
#X obj 59 158 t f b;
#X obj 59 182 until;
#X obj 59 236 f;
#X obj 89 240 + 1;
#X msg 77 206 0;
#X obj 59 270 t f f;
#X obj 59 300 array get \$1 0 1;
#N canvas 634 433 341 309 message-parsing 0;
#X obj 39 26 inlet;
#X obj 39 50 route set;
#X obj 179 234 outlet;
#X obj 99 234 outlet;
#X obj 179 114 symbol;
#X connect 0 0 1 0;
#X connect 1 0 4 0;
#X connect 1 1 3 0;
#X connect 4 0 2 0;
#X restore 59 58 pd message-parsing;
#X obj 59 392 array set \$1;
#X obj 59 324 + 0.5;
#X obj 59 348 i;
#X connect 0 0 9 0;
#X connect 1 0 2 0;
#X connect 2 0 3 0;
#X connect 2 1 6 0;
#X connect 3 0 4 0;
#X connect 4 0 5 0;
#X connect 4 0 7 0;
#X connect 5 0 4 1;
#X connect 6 0 4 1;
#X connect 7 0 8 0;
#X connect 7 1 10 1;
#X connect 8 0 11 0;
#X connect 9 0 1 0;
#X connect 9 1 1 1;
#X connect 9 1 8 2;
#X connect 9 1 10 2;
#X connect 11 0 12 0;
#X connect 12 0 10 0;
