#N canvas 194 217 779 486 12;
#X text 382 216 set the array being referenced;
#X text 638 439 array-abs v0.0.0;
#X text 159 240 sort direction;
#X msg 91 240 ascend;
#X msg 121 270 descend;
#X msg 385 246 set array-sort-help-2;
#X msg 420 290 set array-sort-help;
#X obj 454 99 array define array-sort-help 16;
#X obj 454 129 array define array-sort-help-2 12;
#N canvas 450 95 786 472 init 0;
#X obj 85 145 t f b;
#X obj 85 169 until;
#X obj 85 223 f;
#X obj 115 227 + 1;
#X msg 103 193 0;
#X obj 85 257 t b f;
#X obj 85 321 random 1000;
#X obj 485 27 loadbang;
#X obj 485 321 random 1000;
#X obj 485 51 t b b;
#X obj 455 51 bng 15 250 50 0 empty empty empty 17 7 0 10 #fcfcfc #000000 #000000;
#X obj 485 145 t f b;
#X obj 485 169 until;
#X obj 485 223 f;
#X obj 515 227 + 1;
#X msg 503 193 0;
#X obj 485 257 t b f;
#X msg 574 262 seed 2567;
#X obj 85 121 array size array-sort-help;
#X obj 485 121 array size array-sort-help-2;
#X obj 485 405 array set array-sort-help-2;
#X obj 85 409 array set array-sort-help;
#X obj 85 345 / 500;
#X obj 85 369 - 1;
#X obj 485 345 / 500;
#X obj 485 369 - 1;
#X connect 0 0 1 0;
#X connect 0 1 4 0;
#X connect 1 0 2 0;
#X connect 2 0 3 0;
#X connect 2 0 5 0;
#X connect 3 0 2 1;
#X connect 4 0 2 1;
#X connect 5 0 6 0;
#X connect 5 1 21 1;
#X connect 6 0 22 0;
#X connect 7 0 9 0;
#X connect 8 0 24 0;
#X connect 9 0 18 0;
#X connect 9 0 19 0;
#X connect 9 1 17 0;
#X connect 10 0 9 0;
#X connect 11 0 12 0;
#X connect 11 1 15 0;
#X connect 12 0 13 0;
#X connect 13 0 14 0;
#X connect 13 0 16 0;
#X connect 14 0 13 1;
#X connect 15 0 13 1;
#X connect 16 0 8 0;
#X connect 16 1 20 1;
#X connect 17 0 8 0;
#X connect 18 0 0 0;
#X connect 19 0 11 0;
#X connect 22 0 23 0;
#X connect 23 0 21 0;
#X connect 24 0 25 0;
#X connect 25 0 20 0;
#X restore 454 69 pd init;
#X obj 61 190 bng 19 250 50 0 empty empty empty 0 -10 0 12 #fcfcfc #000000 #000000;
#X text 89 190 bang defaults to ascending order;
#X listbox 61 428 50 0 0 3 indices - - 0;
#X text 58 38 [array-sort] sorts the values of an array in ascending or descending order according to the message sent to the 1st inlet. it returns the original indices of the sorted data as a list from the 1st outlet., f 49;
#X obj 61 384 array-sort array-sort-help;
#X connect 3 0 14 0;
#X connect 4 0 14 0;
#X connect 5 0 14 0;
#X connect 6 0 14 0;
#X connect 10 0 14 0;
#X connect 14 0 12 0;
