#N canvas 194 217 779 456 12;
#X text 338 168 set the array being referenced;
#X msg 341 198 set array-window-help-2;
#X msg 376 242 set array-window-help;
#X obj 61 374 array-window array-window-help;
#X text 624 409 array-abs v0.0.0;
#X text 58 38 [array-window] fills the currently referenced array with a specified window function for use in spectral analysis.;
#X msg 61 154 blackman;
#X msg 151 244 hann;
#X msg 121 214 hamming;
#X msg 91 184 cosine;
#X obj 454 319 array define array-window-help 4096;
#X obj 454 349 array define array-window-help-2 1024;
#X text 58 128 window function;
#X connect 1 0 3 0;
#X connect 2 0 3 0;
#X connect 6 0 3 0;
#X connect 7 0 3 0;
#X connect 8 0 3 0;
#X connect 9 0 3 0;
