#N canvas 463 371 402 480 12;
#X obj 47 44 inlet;
#N canvas 634 433 341 309 message-parsing 0;
#X obj 39 26 inlet;
#X obj 39 50 route set;
#X obj 179 234 outlet;
#X obj 99 234 outlet;
#X obj 179 114 symbol;
#X obj 99 114 symbol;
#X connect 0 0 1 0;
#X connect 1 0 4 0;
#X connect 1 1 5 0;
#X connect 4 0 2 0;
#X connect 5 0 3 0;
#X restore 47 74 pd message-parsing;
#X obj 47 408 array set \$1;
#X obj 47 316 array get;
#X obj 47 144 array size;
#X obj 47 98 t b s;
#X obj 47 168 t b f;
#X obj 191 249 pack f s;
#X obj 265 139 loadbang;
#X obj 265 163 symbol \$1;
#X msg 191 273 \; \$2 resize \$1 \;;
#X obj 47 340 t l b;
#X msg 87 378 0;
#X connect 0 0 1 0;
#X connect 1 0 5 0;
#X connect 1 1 2 2;
#X connect 1 1 7 1;
#X connect 3 0 11 0;
#X connect 4 0 6 0;
#X connect 5 0 4 0;
#X connect 5 1 4 1;
#X connect 5 1 3 2;
#X connect 6 0 3 0;
#X connect 6 1 7 0;
#X connect 7 0 10 0;
#X connect 8 0 9 0;
#X connect 9 0 7 1;
#X connect 11 0 2 0;
#X connect 11 1 12 0;
#X connect 12 0 2 1;
