#N canvas 194 217 779 456 12;
#X text 228 128 set the array being referenced;
#X msg 231 158 set array-ceil-help-2;
#X msg 266 202 set array-ceil-help;
#X obj 61 304 array-ceil array-ceil-help;
#X text 624 409 array-abs v0.0.0;
#X obj 61 160 bng 19 250 50 0 empty empty empty 0 -10 0 12 #fcfcfc #000000 #000000;
#N canvas 208 233 902 468 init 0;
#X obj 85 169 until;
#X obj 85 223 f;
#X obj 115 227 + 1;
#X msg 103 193 0;
#X obj 85 257 t b f;
#X obj 485 27 loadbang;
#X obj 485 51 t b b;
#X obj 455 51 bng 15 250 50 0 empty empty empty 17 7 0 10 #fcfcfc #000000 #000000;
#X obj 485 169 until;
#X obj 485 223 f;
#X obj 515 227 + 1;
#X msg 503 193 0;
#X obj 485 257 t b f;
#X obj 485 121 array size array-ceil-help-2;
#X msg 574 262 seed 2567;
#X obj 485 395 array set array-ceil-help-2;
#X obj 85 399 array set array-ceil-help;
#X obj 85 121 array size array-ceil-help;
#X obj 85 345 / 10;
#X obj 485 345 / 10;
#X obj 85 321 random 100;
#X obj 485 321 random 100;
#X obj 485 145 t f b f;
#X obj 85 145 t f b f;
#X msg 195 177 \; array-ceil-help bounds 0 10 \$1 0 \;;
#X obj 195 145 - 1;
#X obj 595 145 - 1;
#X msg 595 177 \; array-ceil-help-2 bounds 0 10 \$1 0 \;;
#X connect 0 0 1 0;
#X connect 1 0 2 0;
#X connect 1 0 4 0;
#X connect 2 0 1 1;
#X connect 3 0 1 1;
#X connect 4 0 20 0;
#X connect 4 1 16 1;
#X connect 5 0 6 0;
#X connect 6 0 13 0;
#X connect 6 0 17 0;
#X connect 6 1 14 0;
#X connect 7 0 6 0;
#X connect 8 0 9 0;
#X connect 9 0 10 0;
#X connect 9 0 12 0;
#X connect 10 0 9 1;
#X connect 11 0 9 1;
#X connect 12 0 21 0;
#X connect 12 1 15 1;
#X connect 13 0 22 0;
#X connect 14 0 21 0;
#X connect 17 0 23 0;
#X connect 18 0 16 0;
#X connect 19 0 15 0;
#X connect 20 0 18 0;
#X connect 21 0 19 0;
#X connect 22 0 8 0;
#X connect 22 1 11 0;
#X connect 22 2 26 0;
#X connect 23 0 0 0;
#X connect 23 1 3 0;
#X connect 23 2 25 0;
#X connect 25 0 24 0;
#X connect 26 0 27 0;
#X restore 454 289 pd init;
#X obj 454 319 array define array-ceil-help 16;
#X obj 454 349 array define array-ceil-help-2 12;
#X text 58 38 upon receiving a bang \, [array-ceil] rounds all values in the currently referenced array up to the next highest integer.;
#X connect 1 0 3 0;
#X connect 2 0 3 0;
#X connect 5 0 3 0;
