#N canvas 376 88 614 891 12;
#X obj 47 44 inlet;
#X obj 417 583 outlet;
#X obj 47 122 array size \$1;
#X obj 47 176 until;
#X obj 47 230 f;
#X obj 77 234 + 1;
#X msg 65 200 0;
#X obj 490 483 outlet;
#X obj 67 296 array get \$1 0 1;
#N canvas 634 433 327 318 message-parsing 0;
#X obj 39 26 inlet;
#X obj 39 50 route set;
#X obj 179 234 outlet;
#X obj 99 234 outlet;
#X obj 179 114 symbol;
#X connect 0 0 1 0;
#X connect 1 0 4 0;
#X connect 1 1 3 0;
#X connect 4 0 2 0;
#X restore 47 74 pd message-parsing;
#X obj 417 386 list store;
#X msg 417 358 append \$1;
#X obj 67 457 until;
#X obj 67 511 f;
#X obj 249 187 value \$0-array-unique-flag;
#X msg 249 151 1;
#X obj 67 320 t b f;
#X obj 67 344 f;
#X obj 67 368 > 0;
#X obj 67 392 select 1;
#X obj 417 410 t l l;
#X obj 417 550 list length;
#X obj 97 515 - 1;
#X obj 67 549 array get \$1 0 1;
#X obj 85 486 - 1;
#X obj 67 637 ==;
#X obj 67 661 select 1;
#X obj 67 685 t b b;
#X obj 107 751 value \$0-array-unique-flag;
#X msg 107 715 0;
#X obj 67 579 t f b;
#X obj 147 368 value \$0-array-unique-thisVal;
#X obj 107 607 value \$0-array-unique-thisVal;
#X obj 47 260 t b f b f;
#X obj 47 784 value \$0-array-unique-flag;
#X obj 47 808 select 1;
#X obj 47 832 value \$0-array-unique-thisVal;
#X obj 47 152 t b f b;
#X obj 67 426 f;
#X connect 0 0 9 0;
#X connect 2 0 37 0;
#X connect 3 0 4 0;
#X connect 4 0 5 0;
#X connect 4 0 33 0;
#X connect 5 0 4 1;
#X connect 6 0 4 1;
#X connect 8 0 16 0;
#X connect 9 0 2 0;
#X connect 9 1 2 1;
#X connect 9 1 8 2;
#X connect 9 1 23 2;
#X connect 10 0 20 0;
#X connect 11 0 10 0;
#X connect 12 0 13 0;
#X connect 13 0 22 0;
#X connect 13 0 23 0;
#X connect 15 0 14 0;
#X connect 16 0 17 0;
#X connect 16 1 31 0;
#X connect 17 0 18 0;
#X connect 18 0 19 0;
#X connect 19 0 38 0;
#X connect 20 0 21 0;
#X connect 20 1 7 0;
#X connect 21 0 1 0;
#X connect 22 0 13 1;
#X connect 23 0 30 0;
#X connect 24 0 13 1;
#X connect 25 0 26 0;
#X connect 26 0 27 0;
#X connect 27 0 12 1;
#X connect 27 1 29 0;
#X connect 29 0 28 0;
#X connect 30 0 25 0;
#X connect 30 1 32 0;
#X connect 32 0 25 1;
#X connect 33 0 34 0;
#X connect 33 1 8 0;
#X connect 33 2 15 0;
#X connect 33 3 24 0;
#X connect 33 3 17 1;
#X connect 33 3 38 1;
#X connect 34 0 35 0;
#X connect 35 0 36 0;
#X connect 36 0 11 0;
#X connect 37 0 10 0;
#X connect 37 1 3 0;
#X connect 37 2 10 1;
#X connect 37 2 6 0;
#X connect 38 0 12 0;
