#N canvas 600 184 432 610 12;
#X obj 33 22 inlet;
#X obj 33 476 outlet;
#X obj 173 280 array size \$1;
#X obj 173 310 t f b;
#X obj 173 334 until;
#X obj 173 388 f;
#X obj 203 392 + 1;
#X msg 191 358 0;
#X obj 173 476 -;
#X obj 173 422 t f f;
#X obj 173 452 array get \$1 0 1;
#N canvas 634 433 604 389 message-parsing 0;
#X obj 39 26 inlet;
#X obj 39 50 route set;
#X obj 179 234 outlet;
#X obj 99 234 outlet;
#X obj 179 114 symbol;
#X obj 399 148 loadbang;
#X obj 314 250 array size \$1;
#X msg 314 274 resize \$1;
#X obj 314 324 array define \$0-array-std-diffs;
#X obj 314 160 t b s;
#X text 155 154 since target table size may have cahnged after initialization, f 20;
#X obj 99 154 t b b;
#X connect 0 0 1 0;
#X connect 1 0 4 0;
#X connect 1 1 11 0;
#X connect 4 0 2 0;
#X connect 4 0 9 0;
#X connect 5 0 6 0;
#X connect 6 0 7 0;
#X connect 7 0 8 0;
#X connect 9 0 6 0;
#X connect 9 1 6 1;
#X connect 11 0 3 0;
#X connect 11 1 6 0;
#X restore 33 52 pd message-parsing;
#X obj 173 554 array set \$0-array-std-diffs;
#X obj 33 96 t b b b;
#X obj 273 160 array-mean \$1;
#X msg 303 130 set \$1;
#X obj 173 500 t f f;
#X obj 173 524 *;
#X obj 33 220 array sum \$0-array-std-diffs;
#X obj 33 394 /;
#X obj 63 394 - 1;
#X obj 33 418 sqrt;
#X connect 0 0 11 0;
#X connect 2 0 3 0;
#X connect 3 0 4 0;
#X connect 3 0 20 0;
#X connect 3 1 7 0;
#X connect 4 0 5 0;
#X connect 5 0 6 0;
#X connect 5 0 9 0;
#X connect 6 0 5 1;
#X connect 7 0 5 1;
#X connect 8 0 16 0;
#X connect 9 0 10 0;
#X connect 9 1 12 1;
#X connect 10 0 8 0;
#X connect 11 0 13 0;
#X connect 11 1 2 1;
#X connect 11 1 10 2;
#X connect 11 1 15 0;
#X connect 13 0 18 0;
#X connect 13 1 2 0;
#X connect 13 2 14 0;
#X connect 14 0 8 1;
#X connect 15 0 14 0;
#X connect 16 0 17 0;
#X connect 16 1 17 1;
#X connect 17 0 12 0;
#X connect 18 0 19 0;
#X connect 19 0 21 0;
#X connect 20 0 19 1;
#X connect 21 0 1 0;
